<svg width="427" height="676" viewBox="0 0 427 676" fill="none" xmlns="http://www.w3.org/2000/svg">
<path fill-rule="evenodd" clip-rule="evenodd" d="M232.256 330.707L234.236 334.417C245.016 346.462 258.356 358.403 266.336 372.524C292.696 419.193 292.986 492.291 281.666 542.971C280.016 550.361 278.116 557.661 276.106 564.921C270.756 584.321 264.676 603.461 260.776 623.371C259.906 627.831 256.186 655.961 266.436 642.671C267.636 641.121 268.716 639.461 269.636 637.741C270.946 635.261 273.006 629.961 273.836 627.291C273.616 625.161 273.456 623.121 273.346 621.201C274.206 636.401 278.376 659.451 291.966 669.391H292.056C297.176 655.641 298.366 642.811 294.736 628.551C293.376 626.161 292.186 623.731 291.186 621.271C300.586 644.421 327.106 665.621 351.766 669.531C357.046 670.371 365.186 672.481 370.466 670.711C367.506 664.191 355.786 653.301 349.866 649.681C349.866 649.681 366.646 656.641 349.836 649.781C339.746 645.661 330.436 640.871 323.336 636.321C342.266 648.451 376.926 662.301 400.086 660.541C391.626 651.231 383.446 646.031 372.406 639.871C343.436 623.721 282.746 608.451 294.526 562.671C295.936 557.211 298.176 551.711 301.396 547.071C305.796 540.731 316.816 531.071 323.336 526.921C320.696 533.261 318.186 541.791 316.316 548.581C314.236 556.131 309.116 573.901 323.256 569.461C325.676 568.701 327.976 567.571 330.096 566.181C333.426 564.001 336.226 561.281 338.946 558.401C349.046 547.741 356.836 537.371 361.396 524.631C362.896 520.461 364.746 517.161 365.516 512.381C383.226 539.971 391.676 496.891 391.196 485.371C389.936 454.89 374.186 432.593 358.046 407.852C362.836 415.201 367.606 422.341 371.956 429.538C386.056 436.475 409.216 428.996 395.626 411.803C378.796 390.5 347.496 363.126 323.936 350.054C323.936 350.054 319.746 347.779 317.206 346.781C300.616 346.323 285.046 344.107 273.756 341.144C259.986 337.529 245.776 335.143 232.256 330.707L227.256 306.983C220.756 262.888 232.766 216.835 248.706 175.894C260.806 144.813 277.516 114.2 297.286 87.3014C338.706 30.9334 385.796 -3.34663 404.886 5.33937C420.886 12.6254 419.776 60.4634 420.076 74.8734C421.356 137.598 434.716 213.379 382.406 259.958C385.576 257.132 388.506 254.198 391.216 251.166C396.326 258.403 403.446 268.741 406.266 277.216C425.146 333.886 366.646 348.146 317.206 346.781" fill="white"/>
<path fill-rule="evenodd" clip-rule="evenodd" d="M194.266 330.707L192.286 334.417C181.506 346.462 168.166 358.403 160.186 372.524C133.826 419.193 133.536 492.291 144.856 542.971C146.506 550.361 148.406 557.661 150.416 564.921C155.766 584.321 161.846 603.461 165.746 623.371C166.616 627.831 170.336 655.961 160.086 642.671C158.886 641.121 157.806 639.461 156.886 637.741C155.576 635.261 153.516 629.961 152.686 627.291C152.906 625.161 153.066 623.121 153.176 621.201C152.316 636.401 148.146 659.451 134.556 669.391H134.466C129.346 655.641 128.156 642.811 131.786 628.551C133.146 626.161 134.336 623.731 135.336 621.271C125.936 644.421 99.416 665.621 74.756 669.531C69.476 670.371 61.3361 672.481 56.0561 670.711C59.0161 664.191 70.736 653.301 76.656 649.681C76.656 649.681 59.8761 656.641 76.6861 649.781C86.7761 645.661 96.0861 640.871 103.186 636.321C84.2561 648.451 49.5961 662.301 26.4361 660.541C34.8961 651.231 43.076 646.031 54.116 639.871C83.086 623.721 143.776 608.451 131.996 562.671C130.586 557.211 128.346 551.711 125.126 547.071C120.726 540.731 109.706 531.071 103.186 526.921C105.826 533.261 108.336 541.791 110.206 548.581C112.286 556.131 117.406 573.901 103.266 569.461C100.846 568.701 98.5461 567.571 96.4261 566.181C93.0961 564.001 90.2961 561.281 87.5761 558.401C77.4761 547.741 69.686 537.371 65.126 524.631C63.626 520.461 61.776 517.161 61.006 512.381C61.956 510.881 62.906 509.121 63.766 507.391C65.596 503.711 66.996 500.161 67.116 499.471C66.946 500.491 63.986 507.681 61.006 512.381C43.296 539.971 34.8461 496.891 35.3261 485.371C36.5861 454.89 52.3361 432.593 68.4761 407.852C63.6861 415.201 58.9161 422.341 54.5661 429.538C40.4661 436.475 17.306 428.996 30.896 411.803C47.726 390.5 79.0261 363.126 102.586 350.054C102.586 350.054 106.776 347.779 109.316 346.781C125.906 346.323 141.476 344.107 152.766 341.144C166.536 337.529 180.746 335.143 194.266 330.707L199.266 306.983C205.766 262.888 193.756 216.835 177.816 175.894C165.716 144.813 149.006 114.2 129.236 87.3014C87.816 30.9334 40.726 -3.34663 21.636 5.33937C5.63602 12.6254 6.74608 60.4634 6.44608 74.8734C5.16608 137.598 -8.194 213.379 44.116 259.958C40.946 257.132 38.0161 254.198 35.3061 251.166C30.1961 258.403 23.076 268.741 20.256 277.216C1.37601 333.886 59.8761 348.146 109.316 346.781" fill="white"/>
<path fill-rule="evenodd" clip-rule="evenodd" d="M420.966 98.9653C420.586 90.7853 420.236 82.7273 420.076 74.8733C419.776 60.4633 420.886 12.6253 404.886 5.33931C388.266 -2.22269 350.426 22.7823 313.576 66.5783C326.896 67.5193 345.426 65.4023 358.296 61.5193C354.756 77.7103 355.806 96.0653 361.466 102.274C375.766 100.979 388.266 85.1203 391.936 69.2183C399.136 79.6503 409.196 92.9553 420.966 98.9653Z" fill="#FFD7E6" stroke="#E0B692" stroke-width="8" stroke-miterlimit="2" stroke-linecap="round" stroke-linejoin="round"/>
<path fill-rule="evenodd" clip-rule="evenodd" d="M361.467 111.515L363.774 136.871L388.967 140.566L368.159 155.24L377.558 178.904L354.444 168.223L338.649 188.192L336.343 162.836L311.149 159.142L331.957 144.467L322.558 120.803L345.673 131.485L361.467 111.515Z" fill="#FEEDAF"/>
<path fill-rule="evenodd" clip-rule="evenodd" d="M367.089 111.002C366.879 108.7 365.292 106.759 363.078 106.1C360.865 105.441 358.465 106.196 357.03 108.009L344.001 124.488L324.927 115.673C322.827 114.704 320.35 115.11 318.672 116.699C316.994 118.288 316.456 120.741 317.31 122.889L325.062 142.415L307.895 154.526C306.006 155.858 305.116 158.205 305.652 160.453C306.188 162.701 308.04 164.396 310.328 164.731L331.118 167.78L333.017 188.702C333.227 191.005 334.824 192.949 337.038 193.607C339.251 194.266 341.641 193.508 343.076 191.696L356.115 175.219L375.19 184.033C377.279 185.001 379.757 184.594 381.434 183.005C383.122 181.418 383.66 178.966 382.806 176.818L375.054 157.292L392.221 145.182C394.11 143.85 395.001 141.502 394.455 139.251C393.919 137.003 392.067 135.309 389.788 134.975L368.998 131.927L367.089 111.002ZM361.467 111.515L363.774 136.871L388.967 140.566L368.159 155.24L377.558 178.904L354.444 168.223L338.649 188.192L336.343 162.836L311.149 159.142L331.957 144.467L322.558 120.803L345.673 131.484L361.467 111.515Z" fill="#E0B692"/>
<path fill-rule="evenodd" clip-rule="evenodd" d="M292.057 673.408H291.967L289.607 672.638C283.607 668.248 279.197 661.598 276.087 654.058C274.427 650.018 273.137 645.728 272.137 641.428C271.367 642.718 270.517 643.948 269.607 645.128C266.177 649.568 263.117 650.398 261.327 650.178C258.987 649.878 256.607 647.798 255.837 643.658C254.707 637.638 256.247 625.808 256.827 622.728C257.297 619.638 257.987 616.448 258.867 613.178C262.687 596.518 267.727 580.288 272.257 563.868C274.237 556.668 276.127 549.438 277.767 542.118C288.887 492.288 288.767 420.396 262.847 374.508C255.017 360.631 241.857 348.939 231.257 337.102C231.047 336.864 230.867 336.602 230.717 336.321L228.727 332.611L228.707 332.571L228.697 332.541L228.677 332.497L228.637 332.427L228.597 332.345L228.587 332.304L228.577 332.281C228.507 332.128 228.457 331.972 228.407 331.815V331.808V331.793L228.367 331.67L228.347 331.562V331.549L228.327 331.494V331.477V331.475L223.347 307.825C223.327 307.745 223.307 307.664 223.297 307.583C216.707 262.809 228.787 216.03 244.977 174.46C257.207 143.057 274.087 112.127 294.057 84.9488C323.557 44.8088 355.977 15.7798 379.377 4.94576C390.587 -0.247239 400.027 -1.24926 406.537 1.71474C412.197 4.28774 416.387 10.9138 419.007 19.7268C424.287 37.5418 423.867 64.5227 424.077 74.8087C424.717 106.315 428.377 141.101 425.317 173.858C422.667 202.334 414.977 229.277 396.287 251.445C401.337 258.719 407.447 268.125 410.057 275.969C416.187 294.363 414.567 308.618 408.147 319.535C401.777 330.377 390.517 338.015 376.707 342.986C363.617 347.694 348.217 350.032 332.827 350.686C355.677 365.033 383.257 389.717 398.767 409.34C404.067 416.049 404.587 421.749 402.887 426.018C401.277 430.096 397.417 433.208 392.337 434.826C388.707 435.982 384.457 436.377 380.237 435.94C388.447 450.93 394.427 466.598 395.197 485.218C395.457 491.368 393.337 505.948 388.777 515.308C385.917 521.178 381.867 524.958 377.477 525.418C374.537 525.718 370.987 524.608 367.167 520.878C366.507 522.548 365.807 524.198 365.167 525.998C360.417 539.248 352.357 550.078 341.857 561.168C338.917 564.278 335.877 567.188 332.287 569.548C329.867 571.128 327.227 572.418 324.457 573.288C319.137 574.958 315.667 574.038 313.447 572.298C311.157 570.498 309.887 567.468 309.707 563.728C309.467 558.498 311.337 551.628 312.457 547.548C313.237 544.718 314.117 541.598 315.087 538.468L314.607 538.888L314.157 539.298L313.337 540.048L312.977 540.388L311.797 541.498L311.647 541.648L310.627 542.638L310.227 543.028L309.447 543.808L308.997 544.258L308.267 544.998L308.257 545.018C306.837 546.558 305.597 548.038 304.677 549.368C301.727 553.618 299.697 558.678 298.407 563.678C293.007 584.658 304.537 598.478 320.407 609.068C337.637 620.568 359.947 628.358 374.357 636.398C385.807 642.778 394.277 648.208 403.047 657.868C404.077 658.998 404.367 660.618 403.807 662.038C403.237 663.458 401.917 664.428 400.387 664.548C390.807 665.278 379.297 663.438 367.697 660.158C370.567 663.358 372.947 666.528 374.107 669.068C374.577 670.108 374.587 671.288 374.127 672.328C373.677 673.358 372.807 674.158 371.737 674.518C365.927 676.468 356.957 674.418 351.137 673.498C333.067 670.628 314.037 658.928 300.837 643.858C300.967 652.868 299.217 661.648 295.807 670.808C295.217 672.368 293.727 673.408 292.057 673.408ZM289.387 568.208C286.647 589.478 298.887 604.328 315.967 615.728C333.377 627.348 355.897 635.258 370.457 643.378C378.067 647.628 384.287 651.388 390.187 656.468C379.827 655.598 368.147 652.488 357.057 648.368C354.817 647.428 351.397 646.008 351.397 646.008C351.117 645.888 350.827 645.808 350.527 645.758C341.637 642.078 333.397 637.888 326.857 633.838L326.737 633.758L325.487 632.968C323.637 631.778 321.157 632.328 319.967 634.178C318.777 636.048 319.317 638.518 321.177 639.708C321.577 639.968 321.977 640.218 322.387 640.478L322.567 640.588L322.767 640.708L323.057 640.888L323.707 641.288L324.007 641.468L324.497 641.758L325.017 642.068L325.117 642.128L325.497 642.348L326.027 642.658H326.037L326.057 642.678C332.507 646.408 340.167 650.168 348.327 653.498L348.507 653.578C352.677 656.318 359.277 662.158 363.477 667.338C363.467 667.328 363.447 667.328 363.427 667.328C359.547 667.028 355.477 666.088 352.387 665.598C331.507 662.278 309.207 645.888 298.307 626.778L298.207 626.588C297.577 625.478 296.977 624.348 296.427 623.218V623.208L296.077 622.488L295.937 622.188L295.687 621.638L295.467 621.118L295.287 620.728L294.897 619.788C294.067 617.738 291.727 616.748 289.687 617.588C287.637 618.418 286.647 620.748 287.477 622.798C287.587 623.058 287.707 623.328 287.817 623.598L287.867 623.708L287.907 623.808C288.007 624.048 288.117 624.298 288.227 624.538L288.257 624.628L288.367 624.848L288.457 625.068L288.547 625.248C289.277 626.868 290.097 628.478 290.987 630.058C293.757 641.318 293.327 651.638 290.197 662.348C287.407 659.148 285.227 655.228 283.487 651.008C280.307 643.288 278.637 634.558 277.817 626.928V626.878C277.707 625.868 277.617 624.868 277.537 623.898L277.527 623.828L277.437 622.528L277.337 620.998C277.217 618.788 275.327 617.098 273.117 617.228C270.907 617.348 269.227 619.238 269.347 621.448C269.367 621.828 269.397 622.208 269.417 622.588L269.427 622.758L269.447 622.958L269.467 623.258L269.507 623.818L269.527 624.098L269.537 624.188C269.557 624.528 269.587 624.868 269.617 625.218L269.647 625.468L269.687 625.928L269.697 626.098L269.717 626.268L269.777 626.868C268.887 629.508 267.217 633.778 266.097 635.878C265.337 637.318 264.437 638.708 263.457 639.998C263.397 638.998 263.387 637.918 263.417 636.808C263.537 631.678 264.357 625.938 264.707 624.158C265.327 620.948 266.017 617.768 266.747 614.608V614.578L266.787 614.428L267.137 613.208L267.157 613.108L267.527 611.868L267.597 611.648L267.977 610.428L268.047 610.208L268.457 608.958L268.497 608.828L268.917 607.588L268.967 607.458L269.417 606.198L269.497 605.968L269.957 604.728L270.037 604.508L270.527 603.228L271.137 601.668L271.327 601.228L271.787 600.098L272.027 599.518L272.457 598.528L272.727 597.898L273.147 596.938L273.427 596.308L273.877 595.328L274.157 594.728L274.667 593.648L274.897 593.148L275.657 591.568L275.697 591.508L276.447 589.988L276.707 589.478L277.257 588.408L277.567 587.808L278.087 586.828L278.417 586.198L278.937 585.228L279.277 584.618L279.827 583.608L280.147 583.038L280.807 581.878L281.037 581.478L281.937 579.918L282.137 579.588L282.867 578.358L283.197 577.818L283.807 576.808L284.177 576.208L284.767 575.258L285.147 574.648L285.757 573.688L286.127 573.108L286.787 572.098L287.127 571.578L287.977 570.288L288.127 570.068L289.147 568.568L289.387 568.208ZM242.937 337.954C252.817 340.479 262.897 342.445 272.747 345.03C284.097 348.011 299.697 350.263 316.357 350.776C318.637 351.749 321.747 353.434 322.027 353.584C345.197 366.445 375.947 393.359 392.487 414.3C395.347 417.915 396.367 420.769 395.457 423.07C394.637 425.122 392.467 426.39 389.907 427.204C385.397 428.642 379.567 428.46 374.737 426.428C370.537 419.55 365.977 412.712 361.397 405.684C360.187 403.833 357.717 403.312 355.867 404.519C354.007 405.726 353.487 408.204 354.697 410.054C359.467 417.365 364.207 424.467 368.537 431.626C368.617 431.756 368.707 431.88 368.797 431.998C378.667 448.316 386.347 465.008 387.207 485.548C387.427 490.918 385.557 503.638 381.587 511.808C380.727 513.568 379.777 515.108 378.697 516.218C378.057 516.858 377.427 517.378 376.657 517.458C375.857 517.538 374.987 517.198 374.117 516.428C369.947 512.718 365.567 502.428 363.347 498.808C362.247 497.018 360.537 495.038 358.087 495.758C355.927 496.398 355.007 498.418 355.497 500.348C356.177 502.948 360.907 512.468 360.907 512.468L360.937 512.508L361.027 512.668L361.187 512.958L361.217 513.008L361.227 513.028L361.297 513.158C360.467 516.938 358.897 519.788 357.637 523.308C353.257 535.518 345.737 545.438 336.047 555.668C333.537 558.318 330.967 560.838 327.897 562.848C326.097 564.038 324.127 565.008 322.057 565.658C320.417 566.168 319.267 566.448 318.457 566.048C317.867 565.758 317.887 565.018 317.777 564.258C317.527 562.408 317.777 560.178 318.167 557.978C318.707 554.878 319.577 551.828 320.177 549.658C321.997 543.018 324.447 534.688 327.027 528.488V528.478L327.057 528.388L327.087 528.328V528.318L327.097 528.298L327.117 528.248L327.147 528.168V528.138L327.157 528.118L327.167 528.078L327.187 528.018L327.207 527.958V527.938L327.217 527.908L327.227 527.858L327.247 527.778L327.257 527.748V527.738V527.698L327.287 527.558C327.297 527.498 327.307 527.438 327.307 527.368L327.327 527.228V527.198V527.178V527.138L327.337 527.068V527.028V526.988V526.948V526.908V526.858V526.798L327.327 526.768V526.748V526.708L327.317 526.608C327.317 526.548 327.307 526.478 327.297 526.418L327.267 526.228L327.247 526.138V526.128V526.118C327.207 525.928 327.157 525.738 327.087 525.548L327.077 525.528V525.518L327.057 525.478L327.027 525.408L327.017 525.378L326.997 525.348L326.977 525.288L326.967 525.258L326.947 525.238L326.917 525.158L326.887 525.108C326.857 525.048 326.827 524.998 326.797 524.938L326.787 524.918L326.727 524.818L326.697 524.778L326.687 524.758L326.677 524.748L326.637 524.688L326.587 524.608L326.567 524.588V524.578L326.547 524.558L326.447 524.428C326.407 524.388 326.377 524.338 326.337 524.298L326.317 524.278L326.267 524.228L326.237 524.188L326.217 524.168L326.187 524.138L326.137 524.088L326.117 524.068L326.107 524.058L326.037 523.998L325.997 523.958C325.837 523.818 325.667 523.688 325.497 523.578L325.477 523.568L325.467 523.558L325.417 523.528L325.367 523.498L325.337 523.478L325.307 523.468L325.257 523.428L325.217 523.418L325.197 523.408L325.147 523.378L325.087 523.348L325.067 523.338L325.057 523.328L324.927 523.278L324.907 523.268L324.897 523.258L324.757 523.208L324.747 523.198H324.737L324.697 523.178L324.617 523.148L324.577 523.138L324.547 523.128H324.517L324.467 523.108L324.397 523.088L324.367 523.078H324.347L324.307 523.068L324.207 523.038H324.187H324.177C324.117 523.018 324.057 523.008 323.997 522.998L323.847 522.978H323.827L323.807 522.968H323.757L323.687 522.958H323.657L323.617 522.948H323.567H323.537H323.487H323.427H323.387H323.377H323.327H323.237C323.167 522.948 323.107 522.948 323.047 522.948L322.927 522.968H322.907H322.897H322.847L322.767 522.988H322.747H322.727L322.657 522.998L322.607 523.008H322.597L322.567 523.018L322.467 523.038C322.407 523.048 322.347 523.068 322.277 523.088L322.157 523.118L322.137 523.128H322.127L322.097 523.138L322.017 523.168L321.977 523.178L321.957 523.188L321.907 523.208L321.857 523.228L321.827 523.238L321.777 523.258L321.727 523.278L321.697 523.298H321.687L321.587 523.348L321.547 523.368H321.537C321.487 523.398 321.427 523.428 321.377 523.458H321.367L321.327 523.488L321.247 523.528L321.217 523.548L321.187 523.568C315.677 527.068 307.127 534.328 301.567 540.518C293.487 549.038 285.697 559.108 278.917 569.758C279.267 568.508 279.617 567.258 279.967 565.998C281.987 558.678 283.907 551.308 285.567 543.858C297.077 492.338 296.617 418.024 269.817 370.573C263.067 358.626 252.587 348.183 242.937 337.954ZM317.317 342.799C301.077 342.351 285.827 340.193 274.777 337.293C261.817 333.892 248.477 331.594 235.687 327.621C235.687 327.621 231.197 306.297 231.197 306.294C224.847 262.915 236.747 217.635 252.437 177.363C264.417 146.603 280.947 116.307 300.507 89.6867C324.997 56.3617 351.457 30.8317 372.797 17.6207C380.927 12.5897 388.247 9.36576 394.367 8.34676C397.807 7.77276 400.807 7.89575 403.227 8.99575C405.677 10.1117 407.467 12.5918 408.977 15.7378C410.827 19.5708 412.147 24.3707 413.127 29.5727C416.247 46.0657 415.907 66.4498 416.077 74.9718C416.717 106.19 420.377 140.658 417.357 173.116C414.737 201.182 407.097 227.747 387.667 249.147L387.437 249.401L386.657 250.242C386.657 250.242 386.667 250.247 379.747 256.988C376.867 259.791 377.587 261.769 378.637 262.91C380.077 264.486 382.667 264.117 384.357 263.041C386.347 261.77 390.507 257.79 390.507 257.79L390.747 257.544L390.767 257.52C395.217 263.967 400.247 271.822 402.477 278.498C407.677 294.106 406.697 306.218 401.247 315.482C395.767 324.821 385.897 331.176 373.997 335.458C357.287 341.47 336.587 343.332 317.317 342.799Z" fill="#E0B692"/>
<path fill-rule="evenodd" clip-rule="evenodd" d="M134.466 673.391H134.556L136.916 672.621C142.916 668.231 147.326 661.581 150.436 654.041C152.096 650.001 153.386 645.711 154.386 641.411C155.156 642.701 156.006 643.931 156.916 645.111C160.346 649.551 163.406 650.381 165.196 650.161C167.536 649.861 169.916 647.781 170.686 643.641C171.816 637.621 170.276 625.791 169.696 622.711C169.226 619.621 168.536 616.431 167.656 613.161C163.836 596.501 158.796 580.271 154.266 563.851C152.286 556.651 150.396 549.421 148.756 542.101C137.636 492.271 137.756 420.379 163.676 374.491C171.506 360.614 184.666 348.922 195.266 337.085C195.476 336.847 195.656 336.585 195.806 336.304L197.796 332.594L197.816 332.554L197.826 332.524L197.846 332.48L197.886 332.41L197.926 332.328L197.936 332.287L197.946 332.264C198.016 332.111 198.066 331.955 198.116 331.798V331.791V331.776L198.156 331.653L198.176 331.545V331.532L198.196 331.477V331.46V331.458L203.176 307.808C203.196 307.728 203.216 307.647 203.226 307.566C209.816 262.792 197.736 216.013 181.546 174.443C169.316 143.04 152.436 112.11 132.466 84.9322C102.966 44.7922 70.5462 15.7632 47.1462 4.92916C35.9362 -0.26384 26.4962 -1.26586 19.9862 1.69814C14.3262 4.27114 10.1362 10.8972 7.51624 19.7102C2.23624 37.5252 2.6563 64.5061 2.44629 74.7921C1.80629 106.298 -1.8537 141.084 1.2063 173.841C3.85629 202.317 11.5462 229.26 30.2362 251.428C25.1862 258.702 19.0763 268.108 16.4663 275.952C10.3363 294.346 11.9562 308.601 18.3762 319.518C24.7462 330.36 36.0063 337.998 49.8163 342.969C62.9063 347.677 78.3063 350.015 93.6963 350.669C70.8463 365.016 43.2662 389.7 27.7562 409.323C22.4562 416.032 21.9362 421.732 23.6362 426.001C25.2462 430.079 29.1063 433.191 34.1863 434.809C37.8163 435.965 42.0663 436.36 46.2863 435.923C38.0762 450.913 32.0963 466.581 31.3263 485.201C31.0663 491.351 33.1862 505.931 37.7462 515.291C40.6062 521.161 44.6563 524.941 49.0463 525.401C51.9863 525.701 55.5362 524.591 59.3562 520.861C60.0162 522.531 60.7162 524.181 61.3562 525.981C66.1062 539.231 74.1663 550.061 84.6663 561.151C87.6063 564.261 90.6462 567.171 94.2362 569.531C96.6562 571.111 99.2963 572.401 102.066 573.271C107.386 574.941 110.856 574.021 113.076 572.281C115.366 570.481 116.636 567.451 116.816 563.711C117.056 558.481 115.186 551.611 114.066 547.531C113.286 544.701 112.406 541.581 111.436 538.451L111.916 538.871L112.366 539.281L113.186 540.031L113.546 540.371L114.726 541.481L114.876 541.631L115.896 542.621L116.296 543.011L117.076 543.791L117.526 544.241L118.256 544.981L118.266 545.001C119.686 546.541 120.926 548.021 121.846 549.351C124.796 553.601 126.826 558.661 128.116 563.661C133.516 584.641 121.986 598.461 106.116 609.051C88.8862 620.551 66.5763 628.341 52.1663 636.381C40.7163 642.761 32.2463 648.191 23.4763 657.851C22.4463 658.981 22.1563 660.601 22.7163 662.021C23.2863 663.441 24.6062 664.411 26.1362 664.531C35.7162 665.261 47.2263 663.421 58.8263 660.141C55.9563 663.341 53.5763 666.511 52.4163 669.051C51.9463 670.091 51.9362 671.271 52.3962 672.311C52.8462 673.341 53.7162 674.141 54.7863 674.501C60.5963 676.451 69.5662 674.401 75.3862 673.481C93.4562 670.611 112.486 658.911 125.686 643.841C125.556 652.851 127.306 661.631 130.716 670.791C131.306 672.351 132.796 673.391 134.466 673.391ZM137.136 568.191C139.876 589.461 127.636 604.311 110.556 615.711C93.1463 627.331 70.6263 635.241 56.0663 643.361C48.4563 647.611 42.2363 651.371 36.3363 656.451C46.6963 655.581 58.3763 652.471 69.4663 648.351C71.7063 647.411 75.1262 645.991 75.1262 645.991C75.4062 645.871 75.6962 645.791 75.9962 645.741C84.8862 642.061 93.1263 637.871 99.6663 633.821L99.7863 633.741L101.036 632.951C102.886 631.761 105.366 632.311 106.556 634.161C107.746 636.031 107.206 638.501 105.346 639.691C104.946 639.951 104.546 640.201 104.136 640.461L103.956 640.571L103.756 640.691L103.466 640.871L102.816 641.271L102.516 641.451L102.026 641.741L101.506 642.051L101.406 642.111L101.026 642.331L100.496 642.641H100.486L100.466 642.661C94.0163 646.391 86.3563 650.151 78.1963 653.481L78.0162 653.561C73.8462 656.301 67.2463 662.141 63.0463 667.321C63.0563 667.311 63.0763 667.311 63.0963 667.311C66.9763 667.011 71.0462 666.071 74.1362 665.581C95.0162 662.261 117.316 645.871 128.216 626.761L128.316 626.571C128.946 625.461 129.546 624.331 130.096 623.201V623.191L130.446 622.471L130.586 622.171L130.836 621.621L131.056 621.101L131.236 620.711L131.626 619.771C132.456 617.721 134.796 616.731 136.836 617.571C138.886 618.401 139.876 620.731 139.046 622.781C138.936 623.041 138.816 623.311 138.706 623.581L138.656 623.691L138.616 623.791C138.516 624.031 138.406 624.281 138.296 624.521L138.266 624.611L138.156 624.831L138.066 625.051L137.976 625.231C137.246 626.851 136.426 628.461 135.536 630.041C132.766 641.301 133.196 651.621 136.326 662.331C139.116 659.131 141.296 655.211 143.036 650.991C146.216 643.271 147.886 634.541 148.706 626.911V626.861C148.816 625.851 148.906 624.851 148.986 623.881L148.996 623.811L149.086 622.511L149.186 620.981C149.306 618.771 151.196 617.081 153.406 617.211C155.616 617.331 157.296 619.221 157.176 621.431C157.156 621.811 157.126 622.191 157.106 622.571L157.096 622.741L157.076 622.941L157.056 623.241L157.016 623.801L156.996 624.081L156.986 624.171C156.966 624.511 156.936 624.851 156.906 625.201L156.876 625.451L156.836 625.911L156.826 626.081L156.806 626.251L156.746 626.851C157.636 629.491 159.306 633.761 160.426 635.861C161.186 637.301 162.086 638.691 163.066 639.981C163.126 638.981 163.136 637.901 163.106 636.791C162.986 631.661 162.166 625.921 161.816 624.141C161.196 620.931 160.506 617.751 159.776 614.591V614.561L159.736 614.411L159.386 613.191L159.366 613.091L158.996 611.851L158.926 611.631L158.546 610.411L158.476 610.191L158.066 608.941L158.026 608.811L157.606 607.571L157.556 607.441L157.106 606.181L157.026 605.951L156.566 604.711L156.486 604.491L155.996 603.211L155.386 601.651L155.196 601.211L154.736 600.081L154.496 599.501L154.066 598.511L153.796 597.881L153.376 596.921L153.096 596.291L152.646 595.311L152.366 594.711L151.856 593.631L151.626 593.131L150.866 591.551L150.826 591.491L150.076 589.971L149.816 589.461L149.266 588.391L148.956 587.791L148.436 586.811L148.106 586.181L147.586 585.211L147.246 584.601L146.696 583.591L146.376 583.021L145.716 581.861L145.486 581.461L144.586 579.901L144.386 579.571L143.656 578.341L143.326 577.801L142.716 576.791L142.346 576.191L141.756 575.241L141.376 574.631L140.766 573.671L140.396 573.091L139.736 572.081L139.396 571.561L138.546 570.271L138.396 570.051L137.376 568.551L137.136 568.191ZM183.586 337.937C173.706 340.462 163.626 342.428 153.776 345.013C142.426 347.994 126.826 350.246 110.166 350.759C107.886 351.732 104.776 353.417 104.496 353.567C81.3262 366.428 50.5763 393.342 34.0363 414.283C31.1763 417.898 30.1563 420.752 31.0663 423.053C31.8863 425.105 34.0562 426.373 36.6162 427.187C41.1262 428.625 46.9563 428.443 51.7863 426.411C55.9863 419.533 60.5462 412.695 65.1262 405.667C66.3362 403.816 68.8062 403.295 70.6562 404.502C72.5163 405.709 73.0363 408.187 71.8263 410.037C67.0563 417.348 62.3162 424.45 57.9862 431.609C57.9062 431.739 57.8163 431.863 57.7263 431.981C47.8563 448.299 40.1763 464.991 39.3163 485.531C39.0963 490.901 40.9663 503.621 44.9363 511.791C45.7963 513.551 46.7463 515.091 47.8263 516.201C48.4663 516.841 49.0962 517.361 49.8662 517.441C50.6662 517.521 51.5363 517.181 52.4062 516.411C56.5762 512.701 60.9563 502.411 63.1763 498.791C64.2763 497.001 65.9863 495.021 68.4363 495.741C70.5963 496.381 71.5163 498.401 71.0262 500.331C70.3463 502.931 65.6162 512.451 65.6162 512.451L65.5863 512.491L65.4962 512.651L65.3363 512.941L65.3063 512.991L65.2963 513.011L65.2263 513.141C66.0563 516.921 67.6262 519.771 68.8862 523.291C73.2662 535.501 80.7863 545.421 90.4763 555.651C92.9863 558.301 95.5562 560.821 98.6262 562.831C100.426 564.021 102.396 564.991 104.466 565.641C106.106 566.151 107.256 566.431 108.066 566.031C108.656 565.741 108.636 565.001 108.746 564.241C108.996 562.391 108.746 560.161 108.356 557.961C107.816 554.861 106.946 551.811 106.346 549.641C104.526 543.001 102.076 534.671 99.4962 528.471V528.461L99.4663 528.371L99.4363 528.311V528.301L99.4263 528.281L99.4063 528.231L99.3762 528.151V528.121L99.3662 528.101L99.3562 528.061L99.3363 528.001L99.3163 527.941V527.921L99.3063 527.891L99.2963 527.841L99.2763 527.761L99.2662 527.731V527.721V527.681L99.2362 527.541C99.2262 527.481 99.2163 527.421 99.2163 527.351L99.1963 527.211V527.181V527.161V527.121L99.1863 527.051V527.011V526.971V526.931V526.891V526.841V526.781L99.1963 526.751V526.731V526.691L99.2063 526.591C99.2063 526.531 99.2163 526.461 99.2263 526.401L99.2562 526.211L99.2763 526.121V526.111V526.101C99.3163 525.911 99.3663 525.721 99.4363 525.531L99.4463 525.511V525.501L99.4663 525.461L99.4962 525.391L99.5062 525.361L99.5263 525.331L99.5463 525.271L99.5563 525.241L99.5763 525.221L99.6062 525.141L99.6362 525.091C99.6662 525.031 99.6963 524.981 99.7263 524.921L99.7362 524.901L99.7963 524.801L99.8263 524.761L99.8363 524.741L99.8463 524.731L99.8862 524.671L99.9363 524.591L99.9563 524.571V524.561L99.9763 524.541L100.076 524.411C100.116 524.371 100.146 524.321 100.186 524.281L100.206 524.261L100.256 524.211L100.286 524.171L100.306 524.151L100.336 524.121L100.386 524.071L100.406 524.051L100.416 524.041L100.486 523.981L100.526 523.941C100.686 523.801 100.856 523.671 101.026 523.561L101.046 523.551L101.056 523.541L101.106 523.511L101.156 523.481L101.186 523.461L101.216 523.451L101.266 523.411L101.306 523.401L101.326 523.391L101.376 523.361L101.436 523.331L101.456 523.321L101.466 523.311L101.596 523.261L101.616 523.251L101.626 523.241L101.766 523.191L101.776 523.181H101.786L101.826 523.161L101.906 523.131L101.946 523.121L101.976 523.111H102.006L102.056 523.091L102.126 523.071L102.156 523.061H102.176L102.216 523.051L102.316 523.021H102.336H102.346C102.406 523.001 102.466 522.991 102.526 522.981L102.676 522.961H102.696L102.716 522.951H102.766L102.836 522.941H102.866L102.906 522.931H102.956H102.986H103.036H103.096H103.136H103.146H103.196H103.286C103.356 522.931 103.416 522.931 103.476 522.931L103.596 522.951H103.616H103.626H103.676L103.756 522.971H103.776H103.796L103.866 522.981L103.916 522.991H103.926L103.956 523.001L104.056 523.021C104.116 523.031 104.176 523.051 104.246 523.071L104.366 523.101L104.386 523.111H104.396L104.426 523.121L104.506 523.151L104.546 523.161L104.566 523.171L104.616 523.191L104.666 523.211L104.696 523.221L104.746 523.241L104.796 523.261L104.826 523.281H104.836L104.936 523.331L104.976 523.351H104.986C105.036 523.381 105.096 523.411 105.146 523.441H105.156L105.196 523.471L105.276 523.511L105.306 523.531L105.336 523.551C110.846 527.051 119.396 534.311 124.956 540.501C133.036 549.021 140.826 559.091 147.606 569.741C147.256 568.491 146.906 567.241 146.556 565.981C144.536 558.661 142.616 551.291 140.956 543.841C129.446 492.321 129.906 418.007 156.706 370.556C163.456 358.609 173.936 348.166 183.586 337.937ZM109.206 342.782C125.446 342.334 140.696 340.176 151.746 337.276C164.706 333.875 178.046 331.577 190.836 327.604C190.836 327.604 195.326 306.28 195.326 306.277C201.676 262.898 189.776 217.618 174.086 177.346C162.106 146.586 145.576 116.29 126.016 89.6701C101.526 56.3451 75.0663 30.8151 53.7263 17.6041C45.5963 12.5731 38.2762 9.34916 32.1562 8.33016C28.7162 7.75616 25.7163 7.87915 23.2963 8.97915C20.8463 10.0951 19.0563 12.5752 17.5463 15.7212C15.6963 19.5542 14.3762 24.3541 13.3962 29.5561C10.2762 46.0491 10.6163 66.4332 10.4463 74.9552C9.80629 106.173 6.14626 140.641 9.16626 173.099C11.7863 201.165 19.4262 227.73 38.8562 249.13L39.0863 249.384L39.8662 250.225C39.8662 250.225 39.8562 250.23 46.7762 256.971C49.6562 259.774 48.9362 261.752 47.8862 262.893C46.4462 264.469 43.8563 264.1 42.1663 263.024C40.1763 261.753 36.0162 257.773 36.0162 257.773L35.7762 257.527L35.7562 257.503C31.3062 263.95 26.2763 271.805 24.0463 278.481C18.8463 294.089 19.8262 306.201 25.2762 315.465C30.7562 324.804 40.6263 331.159 52.5262 335.441C69.2362 341.453 89.9363 343.315 109.206 342.782Z" fill="#E0B692"/>
<path fill-rule="evenodd" clip-rule="evenodd" d="M5.55627 98.9653C5.93627 90.7853 6.28629 82.7273 6.44629 74.8733C6.74629 60.4633 5.63623 12.6253 21.6362 5.33931C38.2562 -2.22269 76.0963 22.7823 112.946 66.5783C99.6263 67.5193 81.0963 65.4023 68.2263 61.5193C71.7663 77.7103 70.7163 96.0653 65.0563 102.274C50.7563 100.979 38.2563 85.1203 34.5863 69.2183C27.3863 79.6503 17.3263 92.9553 5.55627 98.9653Z" fill="#FFD7E6" stroke="#E0B692" stroke-width="8" stroke-miterlimit="2" stroke-linecap="round" stroke-linejoin="round"/>
<path fill-rule="evenodd" clip-rule="evenodd" d="M65.0563 111.515L62.7498 136.871L37.5563 140.566L58.3643 155.24L48.9651 178.904L72.0796 168.223L87.8741 188.192L90.1806 162.836L115.374 159.142L94.5661 144.467L103.965 120.803L80.8507 131.485L65.0563 111.515Z" fill="#FEEDAF"/>
<path fill-rule="evenodd" clip-rule="evenodd" d="M69.4933 108.009C68.0582 106.196 65.6586 105.441 63.445 106.1C61.2313 106.759 59.6445 108.7 59.4341 111.002L57.5256 131.927L36.735 134.975C34.4566 135.309 32.6044 137.003 32.0686 139.251C31.5229 141.502 32.4134 143.85 34.3025 145.182L51.4689 157.292L43.7171 176.818C42.8636 178.966 43.4014 181.418 45.089 183.005C46.7668 184.594 49.2441 185.001 51.3339 184.033L70.4087 175.219L83.4472 191.696C84.8823 193.508 87.2722 194.266 89.4858 193.607C91.6994 192.949 93.2959 191.005 93.5064 188.702L95.405 167.78L116.195 164.731C118.484 164.396 120.336 162.701 120.872 160.453C121.407 158.205 120.517 155.858 118.628 154.526L101.462 142.415L109.214 122.889C110.067 120.741 109.529 118.288 107.851 116.699C106.173 115.11 103.696 114.704 101.597 115.673L82.522 124.488L69.4933 108.009ZM65.0565 111.515L62.7499 136.871L37.5564 140.566L58.3644 155.24L48.9653 178.904L72.0798 168.223L87.8743 188.192L90.1807 162.836L115.374 159.142L94.5662 144.467L103.965 120.803L80.8509 131.484L65.0565 111.515Z" fill="#E0B692"/>
<path fill-rule="evenodd" clip-rule="evenodd" d="M212.695 226.443L220.805 280.335L255.126 262.841L232.278 295.629L272.692 306.443L232.278 317.258L255.126 349.041L220.805 332.55L212.695 386.443L204.584 332.55L170.274 349.041L193.112 317.258L152.697 306.443L193.112 295.629L170.274 263.841L204.584 280.335L212.695 226.443Z" fill="#ECF7F9"/>
<path fill-rule="evenodd" clip-rule="evenodd" d="M215.074 226.086C214.893 224.911 213.879 224.043 212.695 224.043C211.51 224.043 210.496 224.911 210.325 226.086L202.695 276.764L171.309 261.677C170.316 261.202 169.132 261.458 168.427 262.299C167.723 263.139 167.68 264.351 168.321 265.242L189.142 294.209L152.078 304.125C151.022 304.406 150.296 305.357 150.296 306.444C150.296 307.53 151.022 308.481 152.078 308.762L189.142 318.678L168.321 347.64C167.68 348.531 167.723 349.742 168.427 350.583C169.132 351.423 170.316 351.68 171.309 351.204L202.695 336.122L210.325 386.801C210.496 387.975 211.51 388.843 212.695 388.843C213.879 388.843 214.893 387.975 215.074 386.801L222.694 336.122L254.08 351.204C255.073 351.68 256.257 351.423 256.962 350.583C257.666 349.742 257.709 348.531 257.068 347.64L236.247 318.678L273.322 308.762C274.367 308.481 275.093 307.53 275.093 306.444C275.093 305.357 274.367 304.406 273.322 304.125L236.205 294.195L257.09 264.213C257.719 263.309 257.655 262.093 256.93 261.264C256.204 260.434 255.009 260.202 254.038 260.702L222.683 276.684L215.074 226.086ZM212.695 242.57L218.436 280.693C218.553 281.456 219.023 282.117 219.706 282.47C220.4 282.823 221.211 282.824 221.894 282.474L247.677 269.331L230.303 294.257C229.855 294.899 229.759 295.718 230.026 296.453C230.293 297.188 230.901 297.745 231.658 297.947L263.407 306.444L231.658 314.939C230.89 315.143 230.282 315.708 230.015 316.45C229.748 317.193 229.866 318.019 230.324 318.659L247.688 342.803L221.84 330.388C221.157 330.058 220.357 330.074 219.685 330.429C219.012 330.786 218.543 331.441 218.436 332.194L212.695 370.316L206.953 332.194C206.846 331.441 206.377 330.786 205.704 330.429C205.032 330.074 204.232 330.058 203.549 330.388L177.712 342.803L195.065 318.659C195.523 318.019 195.641 317.193 195.374 316.45C195.107 315.708 194.499 315.143 193.731 314.939L161.982 306.444L193.731 297.947C194.499 297.744 195.107 297.179 195.374 296.437C195.641 295.695 195.523 294.869 195.065 294.229L177.712 270.08L203.549 282.499C204.232 282.829 205.032 282.813 205.704 282.457C206.377 282.1 206.846 281.446 206.953 280.693L212.695 242.57Z" fill="#E0B692"/>
</svg>
