<svg width="374" height="162" viewBox="0 0 374 162" fill="none" xmlns="http://www.w3.org/2000/svg">
<path fill-rule="evenodd" clip-rule="evenodd" d="M251.511 139.9C244.101 145.72 234.061 148.14 225.031 144.63C211.911 139.54 201.691 125.98 200.301 112.02C198.771 96.6297 208.471 84.4796 219.681 75.1796C230.921 65.8696 244.411 62.3596 257.501 56.7096C273.411 49.8296 289.001 41.0797 303.781 32.0197C314.311 25.5697 324.141 18.3895 336.401 15.6495C341.701 14.4695 347.381 13.6495 352.171 16.8195C362.851 23.8995 359.831 38.3995 353.681 47.3895C348.961 54.2995 342.581 59.2596 335.931 64.1696C332.721 66.5396 329.431 68.8895 326.051 71.1295L326.601 72.0695C335.701 74.3695 334.551 84.0496 329.971 90.4796C323.701 99.2996 313.951 105.269 303.781 109.099L304.391 113.049C304.681 115.029 304.761 117.06 304.391 118.96C303.491 123.48 300.821 126.78 297.621 129.93C290.431 137.02 279.221 141.53 269.291 142.77C264.431 143.37 258.681 144.47 253.981 142.51L251.511 139.9Z" fill="white"/>
<path fill-rule="evenodd" clip-rule="evenodd" d="M237.782 113.419C240.302 108.769 244.842 106.909 248.942 107.669C252.982 108.419 256.412 111.729 256.902 116.999C257.492 123.409 254.452 129.439 249.842 133.789C245.142 138.229 238.742 141.009 232.402 140.489C230.032 140.299 227.812 139.669 225.712 138.739C223.452 137.729 221.342 136.379 219.332 134.829C216.922 132.969 214.722 130.699 212.832 128.199C210.932 125.699 209.352 122.959 208.212 120.139C207.642 118.729 207.142 117.279 206.752 115.809C206.392 114.399 206.122 112.979 206.002 111.539C205.062 100.429 209.592 92.0695 216.542 85.4595C228.262 74.3095 246.342 67.7595 259.762 61.9595C262.662 60.7095 264.002 57.3394 262.752 54.4394C261.492 51.5394 258.122 50.2095 255.232 51.4595C240.712 57.7295 221.332 65.1094 208.662 77.1694C199.262 86.1094 193.322 97.4895 194.602 112.51C194.782 114.59 195.152 116.659 195.692 118.699C196.202 120.649 196.852 122.579 197.612 124.439C199.122 128.169 201.202 131.789 203.712 135.099C206.212 138.409 209.142 141.409 212.322 143.869C215.072 145.999 217.982 147.819 221.062 149.189C224.332 150.639 227.792 151.589 231.472 151.889C240.972 152.669 250.662 148.759 257.702 142.099C264.832 135.359 269.202 125.879 268.292 115.949C267.262 104.749 259.612 98.0094 251.022 96.4194C242.532 94.8494 232.942 98.3295 227.722 107.969C226.222 110.739 227.252 114.219 230.032 115.719C232.802 117.229 236.282 116.189 237.782 113.419Z" fill="#E0B692"/>
<path fill-rule="evenodd" clip-rule="evenodd" d="M259.761 61.9594C267.871 58.4494 275.901 54.4694 283.791 50.2094C291.611 45.9794 299.301 41.4793 306.771 36.8993C312.961 33.0993 318.891 29.0392 325.251 25.8392C329.151 23.8592 333.221 22.2194 337.651 21.2294C339.851 20.7394 342.131 20.2892 344.371 20.3192C345.981 20.3392 347.571 20.6292 349.011 21.5892C352.531 23.9192 353.651 27.5494 353.521 31.2594C353.351 35.8194 351.441 40.5293 348.961 44.1593C347.301 46.5993 345.391 48.7494 343.341 50.7494C340.021 53.9694 336.321 56.7792 332.531 59.5692L322.891 66.3593C319.001 68.9393 315.001 71.3794 310.871 73.5294C306.811 75.6494 302.621 77.4993 298.321 78.9393C295.321 79.9293 293.701 83.1693 294.701 86.1693C295.691 89.1593 298.931 90.7892 301.931 89.7892C306.811 88.1692 311.561 86.0793 316.171 83.6693C320.651 81.3293 325.001 78.6893 329.211 75.8993L339.331 68.7794C343.531 65.6694 347.621 62.5294 351.311 58.9594C353.901 56.4294 356.301 53.6993 358.401 50.6193C362.831 44.1393 365.771 35.2392 364.761 27.3392C364.001 21.3792 361.151 15.9092 355.321 12.0492C352.601 10.2492 349.691 9.3294 346.681 9.0094C342.891 8.6094 338.941 9.21922 335.151 10.0692C329.781 11.2692 324.831 13.2293 320.091 15.6193C313.461 18.9693 307.251 23.1893 300.791 27.1493C293.491 31.6193 285.991 36.0193 278.351 40.1493C270.761 44.2493 263.041 48.0794 255.231 51.4594C252.331 52.7094 250.991 56.0794 252.251 58.9794C253.501 61.8694 256.871 63.2094 259.761 61.9594Z" fill="#E0B692"/>
<path fill-rule="evenodd" clip-rule="evenodd" d="M330.241 67.2394C328.461 65.3094 325.521 64.8093 323.161 66.1893C320.441 67.7893 319.521 71.2994 321.111 74.0194L322.881 77.0392L325.211 77.6193C326.841 78.0293 327.651 79.0192 327.721 80.2892C327.851 82.5592 326.781 85.0993 325.311 87.1693C322.551 91.0493 319.011 94.2794 315.051 96.9794C310.951 99.7794 306.401 101.999 301.771 103.749L294.841 105.999C291.801 106.839 290.021 109.999 290.861 113.039C291.711 116.079 294.871 117.859 297.911 117.019L305.801 114.449C311.281 112.389 316.641 109.739 321.491 106.429C326.571 102.969 331.091 98.7792 334.631 93.7992C338.411 88.4892 340.141 81.4893 338.531 76.1093C337.401 72.3293 334.871 69.0394 330.241 67.2394Z" fill="#E0B692"/>
<path fill-rule="evenodd" clip-rule="evenodd" d="M298.131 109.96L298.731 113.89C298.841 114.62 298.911 115.35 298.921 116.08C298.931 116.68 298.891 117.27 298.781 117.85C298.481 119.34 297.871 120.63 297.091 121.81C296.131 123.26 294.921 124.57 293.611 125.86C290.491 128.94 286.471 131.43 282.181 133.31C277.751 135.25 273.021 136.54 268.581 137.09C265.921 137.42 262.981 137.94 260.121 137.9C259.111 137.89 258.121 137.8 257.171 137.56L255.661 135.97C253.491 133.68 249.861 133.58 247.571 135.76C245.281 137.93 245.191 141.55 247.361 143.84L250.661 147.32L251.781 147.78C254.341 148.85 257.111 149.3 259.951 149.34C263.351 149.39 266.841 148.84 270.001 148.44C275.471 147.76 281.311 146.18 286.771 143.79C292.371 141.33 297.571 138.02 301.641 134C303.951 131.72 306.001 129.35 307.531 126.67C308.661 124.67 309.511 122.5 310.001 120.08C310.211 118.99 310.331 117.86 310.351 116.73C310.391 115.23 310.271 113.71 310.041 112.21L309.431 108.23C308.961 105.11 306.031 102.97 302.911 103.44C299.791 103.92 297.651 106.84 298.131 109.96Z" fill="#E0B692"/>
<path fill-rule="evenodd" clip-rule="evenodd" d="M122.337 140.608C129.747 146.428 139.787 148.848 148.817 145.338C161.937 140.248 172.157 126.688 173.547 112.728C175.077 97.3377 165.377 85.1876 154.167 75.8876C142.927 66.5776 129.437 63.0676 116.347 57.4176C100.437 50.5376 84.8475 41.7877 70.0675 32.7277C59.5375 26.2777 49.7075 19.0976 37.4475 16.3576C32.1475 15.1776 26.4675 14.3575 21.6775 17.5275C10.9975 24.6075 14.0175 39.1075 20.1675 48.0975C24.8875 55.0075 31.2675 59.9676 37.9175 64.8776C41.1275 67.2476 44.4175 69.5975 47.7975 71.8375L47.2474 72.7775C38.1474 75.0775 39.2974 84.7576 43.8774 91.1876C50.1474 100.008 59.8975 105.978 70.0675 109.808L69.4575 113.757C69.1675 115.737 69.0875 117.768 69.4575 119.668C70.3575 124.188 73.0274 127.488 76.2274 130.638C83.4174 137.728 94.6275 142.238 104.557 143.478C109.417 144.078 115.167 145.178 119.867 143.218L122.337 140.608Z" fill="white"/>
<path fill-rule="evenodd" clip-rule="evenodd" d="M146.127 108.677C140.907 99.0375 131.317 95.5574 122.827 97.1274C114.237 98.7174 106.587 105.457 105.557 116.657C104.647 126.587 109.017 136.067 116.147 142.807C123.187 149.467 132.877 153.377 142.377 152.597C146.057 152.297 149.517 151.347 152.787 149.897C155.867 148.527 158.777 146.707 161.527 144.577C164.707 142.117 167.637 139.117 170.137 135.807C172.647 132.497 174.727 128.877 176.237 125.147C176.997 123.287 177.647 121.357 178.157 119.407C178.697 117.367 179.067 115.298 179.247 113.218C180.527 98.1975 174.587 86.8174 165.187 77.8774C152.517 65.8174 133.137 58.4375 118.617 52.1675C115.727 50.9175 112.357 52.2474 111.097 55.1474C109.847 58.0474 111.187 61.4175 114.087 62.6675C127.507 68.4675 145.587 75.0175 157.307 86.1675C164.257 92.7775 168.787 101.137 167.847 112.247C167.727 113.687 167.457 115.107 167.097 116.517C166.707 117.987 166.207 119.437 165.637 120.847C164.497 123.667 162.917 126.407 161.017 128.907C159.127 131.407 156.927 133.677 154.517 135.537C152.507 137.087 150.397 138.437 148.137 139.447C146.037 140.377 143.817 141.007 141.447 141.197C135.107 141.717 128.707 138.937 124.007 134.497C119.397 130.147 116.357 124.117 116.947 117.707C117.437 112.437 120.867 109.127 124.907 108.377C129.007 107.617 133.547 109.477 136.067 114.127C137.567 116.897 141.047 117.937 143.817 116.427C146.597 114.927 147.627 111.447 146.127 108.677Z" fill="#E0B692"/>
<path fill-rule="evenodd" clip-rule="evenodd" d="M118.617 52.1674C110.807 48.7874 103.087 44.9573 95.4974 40.8573C87.8574 36.7273 80.3574 32.3273 73.0574 27.8573C66.5974 23.8973 60.3874 19.6773 53.7574 16.3273C49.0174 13.9373 44.0674 11.9772 38.6974 10.7772C34.9074 9.92723 30.9574 9.31741 27.1674 9.71741C24.1574 10.0374 21.2474 10.9572 18.5274 12.7572C12.6974 16.6172 9.84733 22.0872 9.08733 28.0472C8.07732 35.9472 11.0174 44.8473 15.4474 51.3273C17.5474 54.4073 19.9474 57.1374 22.5374 59.6674C26.2274 63.2374 30.3174 66.3774 34.5174 69.4874L44.6374 76.6073C48.8474 79.3973 53.1974 82.0373 57.6774 84.3773C62.2874 86.7873 67.0374 88.8772 71.9174 90.4972C74.9174 91.4972 78.1574 89.8673 79.1474 86.8773C80.1474 83.8773 78.5274 80.6373 75.5274 79.6473C71.2274 78.2073 67.0373 76.3574 62.9773 74.2374C58.8473 72.0874 54.8474 69.6473 50.9574 67.0673L41.3174 60.2772C37.5274 57.4872 33.8274 54.6774 30.5074 51.4574C28.4574 49.4574 26.5474 47.3073 24.8874 44.8673C22.4074 41.2373 20.4974 36.5274 20.3274 31.9674C20.1974 28.2574 21.3173 24.6272 24.8373 22.2972C26.2773 21.3372 27.8673 21.0472 29.4773 21.0272C31.7173 20.9972 33.9974 21.4474 36.1974 21.9374C40.6274 22.9274 44.6973 24.5672 48.5973 26.5472C54.9573 29.7472 60.8874 33.8073 67.0774 37.6073C74.5474 42.1873 82.2374 46.6874 90.0574 50.9174C97.9474 55.1774 105.977 59.1574 114.087 62.6674C116.977 63.9174 120.347 62.5774 121.597 59.6874C122.857 56.7874 121.517 53.4174 118.617 52.1674Z" fill="#E0B692"/>
<path fill-rule="evenodd" clip-rule="evenodd" d="M43.6073 67.9474C38.9773 69.7474 36.4474 73.0373 35.3174 76.8173C33.7074 82.1973 35.4373 89.1972 39.2173 94.5072C42.7573 99.4872 47.2773 103.677 52.3573 107.137C57.2073 110.447 62.5674 113.097 68.0474 115.157L75.9374 117.727C78.9774 118.567 82.1373 116.787 82.9873 113.747C83.8273 110.707 82.0474 107.547 79.0074 106.707L72.0774 104.457C67.4474 102.707 62.8974 100.487 58.7974 97.6874C54.8374 94.9874 51.2974 91.7573 48.5374 87.8773C47.0674 85.8073 45.9974 83.2672 46.1274 80.9972C46.1974 79.7272 47.0074 78.7373 48.6374 78.3273L50.9673 77.7472L52.7373 74.7274C54.3273 72.0074 53.4074 68.4973 50.6874 66.8973C48.3274 65.5173 45.3873 66.0174 43.6073 67.9474Z" fill="#E0B692"/>
<path fill-rule="evenodd" clip-rule="evenodd" d="M64.4173 108.938L63.8073 112.898C63.5773 114.418 63.4572 115.938 63.4972 117.438C63.5172 118.568 63.6372 119.698 63.8472 120.788C64.3372 123.208 65.1873 125.378 66.3173 127.378C67.8473 130.058 69.8973 132.428 72.2073 134.708C76.2773 138.728 81.4773 142.038 87.0773 144.498C92.5373 146.888 98.3772 148.468 103.847 149.148C107.007 149.548 110.497 150.098 113.897 150.048C116.737 150.008 119.507 149.558 122.067 148.488L123.187 148.028L126.487 144.548C128.657 142.258 128.567 138.638 126.277 136.468C123.987 134.288 120.357 134.388 118.187 136.678L116.677 138.268C115.727 138.508 114.737 138.598 113.727 138.608C110.867 138.648 107.927 138.128 105.267 137.798C100.827 137.248 96.0973 135.958 91.6673 134.018C87.3773 132.138 83.3572 129.648 80.2372 126.568C78.9272 125.278 77.7173 123.968 76.7573 122.518C75.9773 121.338 75.3673 120.048 75.0673 118.558C74.9573 117.978 74.9173 117.388 74.9273 116.788C74.9373 116.068 75.0072 115.338 75.1172 114.618C75.1172 114.598 75.7172 110.668 75.7172 110.668C76.1972 107.548 74.0573 104.628 70.9373 104.148C67.8173 103.678 64.8873 105.818 64.4173 108.938Z" fill="#E0B692"/>
</svg>
