<svg width="979" height="509" viewBox="0 0 979 509" fill="none" xmlns="http://www.w3.org/2000/svg">
<path d="M535.283 485.48C498.483 448.33 559.333 418.94 584.303 402.81C590.673 398.69 597.543 395.08 602.663 389.47C615.133 375.78 644.683 362.14 645.683 342.25C646.123 333.56 627.893 329.37 656.643 305.09C675.643 289.04 712.893 279.68 736.193 269.17C761.193 257.91 787.673 247.37 811.463 233.7C829.533 223.32 846.133 210.48 864.473 200.52C890.413 186.45 912.433 163.06 934.913 144.18C941.153 138.95 957.953 124.2 967.823 127.01C971.463 128.05 964.703 136.57 963.963 138.82C960.303 150.02 953.873 160.44 946.133 169.24C943.453 172.3 928.193 186.03 928.033 189C927.733 194.48 941.713 194.07 934.293 208.01C923.273 228.72 889.463 250.53 870.313 263.45C859.253 270.92 847.853 277.94 836.743 285.39C832.873 287.98 829.203 290.63 825.603 293.6C824.403 294.59 823.253 295.63 822.073 296.65C821.633 297.04 820.193 297.98 820.753 297.81C832.193 294.48 842.303 288.89 854.543 287.72C858.263 287.36 865.643 290.16 865.673 290.15C867.163 290.07 874.093 286.63 873.023 290.6C871.273 297.1 863.803 300.97 858.313 303.93C844.093 311.6 829.753 319.2 815.313 326.48C809.463 329.42 803.943 332.94 798.603 336.73C796.733 338.06 794.863 339.4 792.923 340.64C792.083 341.17 789.603 341.66 790.413 342.25C793.163 344.25 823.003 352.82 813.313 348.06C811.533 347.18 817.063 346.76 819.013 346.39C822.113 345.81 832.653 342.78 830.063 349.67C827.813 355.64 793.493 372.63 786.723 375.78C782.233 377.86 777.443 379.38 772.853 381.24C771.433 381.82 770.003 382.42 768.603 383.05C767.643 383.48 764.803 384.22 765.813 384.52C773.723 386.85 789.173 379.64 795.803 392.85C799.123 399.48 789.683 403.7 784.803 404.74C777.003 406.4 768.943 405.66 761.173 407.57C748.633 410.63 735.003 417.39 721.933 417.31C720.773 417.31 724.203 416.84 725.343 416.65C727.233 416.35 729.133 416.19 731.043 416.21C736.553 416.25 743.233 415.62 748.603 416.82C757.183 418.73 757.393 431.86 750.653 435.9C739.803 442.4 723.483 443.63 711.213 442.44C706.883 442.02 702.643 441.01 698.323 440.44C696.413 440.19 694.493 440.04 692.573 439.92C692.303 439.9 691.473 439.83 691.753 439.87C695.133 440.4 699.163 440.17 702.323 441.76C708.673 444.95 711.953 455.94 705.413 460.23C695.983 466.43 675.743 465.74 665.213 464.57C660.773 464.07 656.603 462.96 652.253 462.08C650.893 461.8 649.533 461.53 648.173 461.32C647.333 461.2 644.883 461.16 645.683 460.92C651.043 459.28 663.253 458.74 668.813 461.54C675.903 465.12 672.773 473.72 666.673 476.25C659.043 479.43 629.883 470.78 620.863 468.13C619.933 467.86 621.773 469.85 622.383 470.61C623.473 471.96 625.993 473.43 626.653 475.07C627.523 477.24 622.033 478.96 620.793 479.16C611.063 480.75 602.663 475.07 597.983 479.16C597.513 479.57 590.583 478.14 588.133 478.34C571.753 479.69 558.203 475.9 542.653 483.81" stroke="white" stroke-width="10" stroke-miterlimit="2" stroke-linecap="round" stroke-linejoin="round"/>
<path fill-rule="evenodd" clip-rule="evenodd" d="M535.283 485.48C498.483 448.33 559.333 418.94 584.303 402.81C590.673 398.69 597.543 395.08 602.663 389.47C615.133 375.78 644.683 362.14 645.683 342.25C646.123 333.56 627.893 329.37 656.643 305.09C675.643 289.04 712.893 279.68 736.193 269.17C761.193 257.91 787.673 247.37 811.463 233.7C829.533 223.32 846.133 210.48 864.473 200.52C890.413 186.45 912.433 163.06 934.913 144.18C941.153 138.95 957.953 124.2 967.823 127.01C971.463 128.05 964.703 136.57 963.963 138.82C960.303 150.02 953.873 160.44 946.133 169.24C943.453 172.3 928.193 186.03 928.033 189C927.733 194.48 941.713 194.07 934.293 208.01C923.273 228.72 889.463 250.53 870.313 263.45C859.253 270.92 847.853 277.94 836.743 285.39C832.873 287.98 829.203 290.63 825.603 293.6C824.403 294.59 823.253 295.63 822.073 296.65C821.633 297.04 820.193 297.98 820.753 297.81C832.193 294.48 842.303 288.89 854.543 287.72C858.263 287.36 865.643 290.16 865.673 290.15C867.163 290.07 874.093 286.63 873.023 290.6C871.273 297.1 863.803 300.97 858.313 303.93C844.093 311.6 829.753 319.2 815.313 326.48C809.463 329.42 803.943 332.94 798.603 336.73C796.733 338.06 794.863 339.4 792.923 340.64C792.083 341.17 789.603 341.66 790.413 342.25C793.163 344.25 823.003 352.82 813.313 348.06C811.533 347.18 817.063 346.76 819.013 346.39C822.113 345.81 832.653 342.78 830.063 349.67C827.813 355.64 793.493 372.63 786.723 375.78C782.233 377.86 777.443 379.38 772.853 381.24C771.433 381.82 770.003 382.42 768.603 383.05C767.643 383.48 764.803 384.22 765.813 384.52C773.723 386.85 789.173 379.64 795.803 392.85C799.123 399.48 789.683 403.7 784.803 404.74C777.003 406.4 768.943 405.66 761.173 407.57C748.633 410.63 735.003 417.39 721.933 417.31C720.773 417.31 724.203 416.84 725.343 416.65C727.233 416.35 729.133 416.19 731.043 416.21C736.553 416.25 743.233 415.62 748.603 416.82C757.183 418.73 757.393 431.86 750.653 435.9C739.803 442.4 723.483 443.63 711.213 442.44C706.883 442.02 702.643 441.01 698.323 440.44C696.413 440.19 694.493 440.04 692.573 439.92C692.303 439.9 691.473 439.83 691.753 439.87C695.133 440.4 699.163 440.17 702.323 441.76C708.673 444.95 711.953 455.94 705.413 460.23C695.983 466.43 675.743 465.74 665.213 464.57C660.773 464.07 656.603 462.96 652.253 462.08C650.893 461.8 649.533 461.53 648.173 461.32C647.333 461.2 644.883 461.16 645.683 460.92C651.043 459.28 663.253 458.74 668.813 461.54C675.903 465.12 672.773 473.72 666.673 476.25C659.043 479.43 629.883 470.78 620.863 468.13C619.933 467.86 621.773 469.85 622.383 470.61C623.473 471.96 625.993 473.43 626.653 475.07C627.523 477.24 622.033 478.96 620.793 479.16C611.063 480.75 602.663 475.07 597.983 479.16C597.513 479.57 590.583 478.14 588.133 478.34C571.753 479.69 558.203 475.9 542.653 483.81" fill="white"/>
<path d="M444.732 484.78C481.532 447.63 420.682 418.24 395.712 402.11C389.342 397.99 382.472 394.38 377.352 388.77C364.882 375.08 335.332 361.44 334.332 341.55C333.892 332.86 352.122 328.67 323.372 304.39C304.372 288.34 267.122 278.98 243.822 268.47C218.822 257.21 192.342 246.67 168.552 233C150.482 222.62 133.882 209.78 115.542 199.82C89.6017 185.75 67.5817 162.36 45.1017 143.48C38.8617 138.25 22.0617 123.5 12.1917 126.31C8.55174 127.35 15.3117 135.87 16.0517 138.12C19.7117 149.32 26.1417 159.74 33.8817 168.54C36.5617 171.6 51.8217 185.33 51.9817 188.3C52.2817 193.78 38.3016 193.37 45.7216 207.31C56.7416 228.02 90.5516 249.83 109.702 262.75C120.762 270.22 132.162 277.24 143.272 284.69C147.142 287.28 150.812 289.93 154.412 292.9C155.612 293.89 156.762 294.93 157.942 295.95C158.382 296.34 159.822 297.28 159.262 297.11C147.822 293.78 137.712 288.19 125.472 287.02C121.752 286.66 114.372 289.46 114.342 289.45C112.852 289.37 105.922 285.93 106.992 289.9C108.742 296.4 116.212 300.27 121.702 303.23C135.922 310.9 150.262 318.5 164.702 325.78C170.552 328.72 176.072 332.24 181.412 336.03C183.282 337.36 185.152 338.7 187.092 339.94C187.932 340.47 190.412 340.96 189.602 341.55C186.852 343.55 157.012 352.12 166.702 347.36C168.482 346.48 162.952 346.06 161.002 345.69C157.902 345.11 147.362 342.08 149.952 348.97C152.202 354.94 186.522 371.93 193.292 375.08C197.782 377.16 202.572 378.68 207.162 380.54C208.582 381.12 210.012 381.72 211.412 382.35C212.372 382.78 215.212 383.52 214.202 383.82C206.292 386.15 190.842 378.94 184.212 392.15C180.892 398.78 190.332 403 195.212 404.04C203.012 405.7 211.072 404.96 218.842 406.87C231.382 409.93 245.012 416.69 258.082 416.61C259.242 416.61 255.812 416.14 254.672 415.95C252.782 415.65 250.882 415.49 248.972 415.51C243.462 415.55 236.782 414.92 231.412 416.12C222.832 418.03 222.622 431.16 229.362 435.2C240.212 441.7 256.532 442.93 268.802 441.74C273.132 441.32 277.372 440.31 281.692 439.74C283.602 439.49 285.522 439.34 287.442 439.22C287.712 439.2 288.542 439.13 288.262 439.17C284.882 439.7 280.852 439.47 277.692 441.06C271.342 444.25 268.062 455.24 274.602 459.53C284.032 465.73 304.272 465.04 314.802 463.87C319.242 463.37 323.412 462.26 327.762 461.38C329.122 461.1 330.482 460.83 331.842 460.62C332.682 460.5 335.132 460.46 334.332 460.22C328.972 458.58 316.762 458.04 311.202 460.84C304.112 464.42 307.242 473.02 313.342 475.55C320.972 478.73 350.132 470.08 359.152 467.43C360.082 467.16 358.242 469.15 357.632 469.91C356.542 471.26 354.022 472.73 353.362 474.37C352.492 476.54 357.982 478.26 359.222 478.46C368.952 480.05 377.352 474.37 382.032 478.46C382.502 478.87 389.432 477.44 391.882 477.64C408.262 478.99 421.812 475.2 437.362 483.11" stroke="white" stroke-width="10" stroke-miterlimit="2" stroke-linecap="round" stroke-linejoin="round"/>
<path fill-rule="evenodd" clip-rule="evenodd" d="M444.732 484.78C481.532 447.63 420.682 418.24 395.712 402.11C389.342 397.99 382.472 394.38 377.352 388.77C364.882 375.08 335.332 361.44 334.332 341.55C333.892 332.86 352.122 328.67 323.372 304.39C304.372 288.34 267.122 278.98 243.822 268.47C218.822 257.21 192.342 246.67 168.552 233C150.482 222.62 133.882 209.78 115.542 199.82C89.6017 185.75 67.5817 162.36 45.1017 143.48C38.8617 138.25 22.0617 123.5 12.1917 126.31C8.55173 127.35 15.3117 135.87 16.0517 138.12C19.7117 149.32 26.1417 159.74 33.8817 168.54C36.5617 171.6 51.8217 185.33 51.9817 188.3C52.2816 193.78 38.3016 193.37 45.7216 207.31C56.7416 228.02 90.5516 249.83 109.702 262.75C120.762 270.22 132.162 277.24 143.272 284.69C147.142 287.28 150.812 289.93 154.412 292.9C155.612 293.89 156.762 294.93 157.942 295.95C158.382 296.34 159.822 297.28 159.262 297.11C147.822 293.78 137.712 288.19 125.472 287.02C121.752 286.66 114.372 289.46 114.342 289.45C112.852 289.37 105.922 285.93 106.992 289.9C108.742 296.4 116.212 300.27 121.702 303.23C135.922 310.9 150.262 318.5 164.702 325.78C170.552 328.72 176.072 332.24 181.412 336.03C183.282 337.36 185.152 338.7 187.092 339.94C187.932 340.47 190.412 340.96 189.602 341.55C186.852 343.55 157.012 352.12 166.702 347.36C168.482 346.48 162.952 346.06 161.002 345.69C157.902 345.11 147.362 342.08 149.952 348.97C152.202 354.94 186.522 371.93 193.292 375.08C197.782 377.16 202.572 378.68 207.162 380.54C208.582 381.12 210.012 381.72 211.412 382.35C212.372 382.78 215.212 383.52 214.202 383.82C206.292 386.15 190.842 378.94 184.212 392.15C180.892 398.78 190.332 403 195.212 404.04C203.012 405.7 211.072 404.96 218.842 406.87C231.382 409.93 245.012 416.69 258.082 416.61C259.242 416.61 255.812 416.14 254.672 415.95C252.782 415.65 250.882 415.49 248.972 415.51C243.462 415.55 236.782 414.92 231.412 416.12C222.832 418.03 222.622 431.16 229.362 435.2C240.212 441.7 256.532 442.93 268.802 441.74C273.132 441.32 277.372 440.31 281.692 439.74C283.602 439.49 285.522 439.34 287.442 439.22C287.712 439.2 288.542 439.13 288.262 439.17C284.882 439.7 280.852 439.47 277.692 441.06C271.342 444.25 268.062 455.24 274.602 459.53C284.032 465.73 304.272 465.04 314.802 463.87C319.242 463.37 323.412 462.26 327.762 461.38C329.122 461.1 330.482 460.83 331.842 460.62C332.682 460.5 335.132 460.46 334.332 460.22C328.972 458.58 316.762 458.04 311.202 460.84C304.112 464.42 307.242 473.02 313.342 475.55C320.972 478.73 350.132 470.08 359.152 467.43C360.082 467.16 358.242 469.15 357.632 469.91C356.542 471.26 354.022 472.73 353.362 474.37C352.492 476.54 357.982 478.26 359.222 478.46C368.952 480.05 377.352 474.37 382.032 478.46C382.502 478.87 389.432 477.44 391.882 477.64C408.262 478.99 421.812 475.2 437.362 483.11" fill="white"/>
<path fill-rule="evenodd" clip-rule="evenodd" d="M925.563 191.58C928.683 190.999 932.713 191.163 935.863 192.417C938.183 193.342 939.703 195.192 939.173 198.413C939.063 199.114 938.813 199.772 938.553 200.43C938.243 201.227 937.853 201.993 937.473 202.758C936.563 204.706 935.333 206.525 934.013 208.325C932.693 210.131 931.233 211.897 929.663 213.599C924.673 219.03 918.733 223.935 913.893 228.596C905.623 236.615 896.693 244.472 887.403 251.88C878.133 259.276 868.513 266.232 858.713 272.262C853.203 275.716 847.573 278.968 841.923 282.179C828.623 289.736 815.113 296.911 801.963 304.714C801.113 305.184 800.813 306.252 801.283 307.098C801.753 307.943 802.823 308.247 803.663 307.777C817.223 300.723 831.153 294.429 844.793 287.515C850.683 284.528 856.493 281.4 862.223 278.112C872.403 272.148 882.473 265.298 892.093 257.852C901.693 250.422 910.843 242.397 919.353 234.268C924.303 229.502 930.403 224.503 935.483 218.92C937.263 216.959 938.953 214.943 940.393 212.814C941.933 210.524 943.213 208.125 944.183 205.644C944.623 204.438 945.073 203.223 945.373 201.97C945.603 201.015 945.793 200.055 945.843 199.07C946.043 193.547 943.753 190.149 940.123 188.448C935.693 186.377 929.253 186.954 924.743 188.683C923.943 188.909 923.473 189.742 923.703 190.541C923.933 191.341 924.763 191.806 925.563 191.58Z" fill="#E0B692"/>
<path fill-rule="evenodd" clip-rule="evenodd" d="M846.223 285.483C849.163 284.857 852.473 284.39 855.953 283.993C858.073 283.75 860.213 283.569 862.353 283.465C865.923 283.293 869.393 283.415 872.473 284.082C874.593 284.431 876.123 285.009 876.523 286.312C876.933 287.679 876.073 289.254 874.603 291.063C873.963 291.849 873.283 292.589 872.563 293.299C871.813 294.046 871.023 294.76 870.213 295.455C868.863 296.621 867.473 297.754 866.073 298.87C863.923 300.576 861.743 302.242 859.573 303.891C857.093 305.776 854.493 307.52 851.843 309.199C847.753 311.787 843.543 314.218 839.443 316.694C834.163 319.936 829.023 323.396 823.733 326.625C821.523 327.974 819.293 329.293 817.003 330.516C811.743 333.354 806.353 335.932 800.923 338.44C792.703 342.238 784.403 345.831 776.113 349.433C775.213 349.785 774.773 350.803 775.123 351.704C775.473 352.605 776.493 353.05 777.393 352.698C785.973 349.712 794.603 346.833 803.093 343.549C808.793 341.341 814.413 338.929 819.933 336.311C823.213 334.741 826.393 333.017 829.533 331.206C834.133 328.554 838.623 325.726 843.233 323.088C847.423 320.65 851.723 318.269 855.893 315.705C858.763 313.944 861.573 312.092 864.243 310.1C866.473 308.436 868.733 306.762 870.933 305.034C872.433 303.858 873.913 302.656 875.353 301.424C876.293 300.614 877.213 299.781 878.103 298.911C879.023 298.002 879.913 297.051 880.733 296.044C884.323 291.615 885.113 287.293 884.053 283.96C882.903 280.355 879.543 277.319 873.663 276.465C869.073 276.044 863.843 276.465 858.743 277.739C853.843 278.965 849.183 280.836 845.263 282.628C844.473 282.892 844.053 283.745 844.313 284.533C844.583 285.321 845.433 285.746 846.223 285.483Z" fill="#E0B692"/>
<path fill-rule="evenodd" clip-rule="evenodd" d="M801.863 343.541C804.523 343.015 807.363 342.788 810.353 342.575C812.203 342.444 814.063 342.355 815.953 342.322C818.273 342.281 820.573 342.408 822.833 342.556C825.123 342.705 827.353 342.892 829.443 343.325C830.643 343.559 831.603 343.9 832.303 344.395C832.693 344.677 832.973 344.998 833.013 345.412C833.133 346.976 831.863 348.639 829.983 350.351C827.273 352.852 824.173 355.013 820.933 357.003C815.823 360.134 810.363 362.844 805.313 365.584C797.843 369.794 790.213 373.774 782.393 377.334C774.603 380.874 766.663 384.014 758.333 386.154C757.383 386.344 756.783 387.274 756.973 388.224C757.173 389.174 758.103 389.774 759.053 389.584C766.073 388.454 772.923 386.744 779.623 384.504C789.633 381.154 799.243 376.664 808.703 372.014C813.933 369.324 819.603 366.694 824.883 363.584C828.613 361.394 832.143 358.954 835.263 356.151C839.373 352.433 841.133 348.236 840.873 344.819C840.573 340.721 837.713 336.883 830.933 335.579C828.903 335.205 826.773 334.908 824.583 334.877C821.533 334.834 818.393 335.15 815.283 335.722C813.253 336.097 811.253 336.548 809.313 337.165C806.253 338.14 803.453 339.36 800.863 340.699C800.083 340.973 799.663 341.832 799.943 342.617C800.213 343.401 801.073 343.815 801.863 343.541Z" fill="#E0B692"/>
<path fill-rule="evenodd" clip-rule="evenodd" d="M784.013 381.684L788.973 383.374C789.793 383.694 790.633 384.194 791.563 384.704C793.403 385.694 795.243 387.074 796.693 388.624C798.053 390.054 798.903 391.764 797.593 393.674C797.313 394.114 796.983 394.524 796.633 394.914C796.213 395.384 795.753 395.824 795.293 396.244C794.583 396.924 793.803 397.514 792.993 398.064C792.113 398.644 791.203 399.174 790.273 399.654C788.943 400.344 787.583 400.954 786.213 401.524C784.013 402.444 781.783 403.264 779.573 404.124C770.463 407.724 760.933 410.454 751.283 412.864C744.033 414.674 736.713 416.284 729.393 417.774C721.943 419.304 714.553 420.774 707.233 422.144C706.273 422.274 705.603 423.164 705.733 424.124C705.863 425.074 706.753 425.744 707.713 425.614C715.173 424.944 722.723 424.294 730.303 423.364C737.853 422.424 745.393 421.274 752.843 419.754C762.943 417.694 772.833 414.904 782.353 411.394C784.633 410.534 786.943 409.714 789.203 408.794C790.803 408.144 792.373 407.444 793.903 406.654C795.093 406.034 796.263 405.374 797.373 404.634C798.543 403.854 799.663 402.984 800.703 402.014C801.453 401.304 802.203 400.554 802.883 399.754C803.383 399.154 803.853 398.514 804.273 397.854C807.033 393.104 806.323 388.814 803.453 385.454C802.133 383.894 800.383 382.514 798.383 381.514C795.553 380.084 792.453 379.194 789.973 378.944L784.653 378.744C783.843 378.564 783.043 379.084 782.863 379.894C782.683 380.704 783.203 381.504 784.013 381.684Z" fill="#E0B692"/>
<path fill-rule="evenodd" clip-rule="evenodd" d="M752.233 418.044C754.603 419.434 756.333 421.994 757.323 424.684C758.043 426.664 757.973 428.774 756.463 430.574C755.403 432.054 753.893 433.074 752.263 433.894C750.323 434.864 748.203 435.524 746.183 436.044C739.323 437.854 732.303 438.804 725.223 439.354C721.053 439.674 716.853 439.844 712.653 439.964C708.413 440.074 704.173 440.134 699.933 440.184C691.273 440.294 682.673 440.404 674.213 440.864C673.243 440.864 672.463 441.644 672.463 442.614C672.463 443.584 673.253 444.364 674.223 444.364C680.003 444.684 685.813 445.274 691.693 445.744C700.503 446.444 709.383 447.084 718.233 447.074C728.333 447.054 738.353 446.064 748.133 443.674C751.233 442.894 754.523 441.814 757.363 440.104C759.503 438.814 761.393 437.164 762.843 435.084C763.743 433.684 764.393 432.284 764.653 430.834C765.053 428.564 764.873 426.284 763.993 424.194C763.223 422.364 762.173 420.604 760.663 419.204C758.543 417.234 755.993 415.794 753.323 415.244C752.553 414.944 751.673 415.324 751.373 416.104C751.073 416.874 751.453 417.744 752.233 418.044Z" fill="#E0B692"/>
<path fill-rule="evenodd" clip-rule="evenodd" d="M712.073 444.124C712.283 445.214 712.483 446.304 712.643 447.474C712.763 448.394 712.693 449.274 712.543 450.164C712.403 451.474 711.643 452.334 710.893 453.144C710.493 453.574 709.973 453.884 709.463 454.234C708.903 454.624 708.303 454.994 707.663 455.324C704.523 456.944 700.683 457.794 697.863 458.564C693.683 459.734 689.383 460.294 685.063 460.554C681.043 460.804 677.003 460.774 672.973 460.694C670.203 460.644 667.453 460.594 664.723 460.534C661.763 460.484 658.793 460.404 655.683 460.384C651.463 460.354 647.043 460.414 642.113 460.434C641.153 460.374 640.313 461.104 640.253 462.064C640.183 463.034 640.913 463.864 641.883 463.934C646.763 464.614 651.133 465.264 655.323 465.804C658.403 466.204 661.363 466.514 664.293 466.864C667.043 467.174 669.813 467.504 672.603 467.744C676.853 468.104 681.143 468.274 685.403 468.154C690.303 468.004 695.173 467.384 699.913 466.154C703.963 465.044 709.793 463.774 713.663 460.824C714.643 460.084 715.533 459.274 716.223 458.314C717.863 456.014 718.883 453.344 718.373 450.024C718.123 448.874 717.843 447.754 717.263 446.684C716.533 445.344 715.673 444.144 714.843 442.954C714.523 442.194 713.643 441.834 712.873 442.154C712.113 442.474 711.753 443.364 712.073 444.124Z" fill="#E0B692"/>
<path fill-rule="evenodd" clip-rule="evenodd" d="M677.723 463.894C677.443 465.414 677.193 467.044 676.783 468.704C676.633 469.354 676.263 469.854 675.873 470.344C675.493 470.864 674.833 471.034 674.253 471.374C673.543 471.784 672.763 472.134 671.933 472.414C669.923 473.114 667.723 473.474 665.973 473.634C664.783 473.744 663.613 473.764 662.433 473.754C660.473 473.724 658.513 473.614 656.523 473.554C651.693 473.514 646.843 473.274 642.003 472.904C638.773 472.654 635.573 472.414 632.383 471.954C629.703 471.644 626.823 471.574 624.033 471.204C622.903 471.054 621.803 470.884 620.753 470.594C619.853 470.244 618.833 470.704 618.493 471.614C618.153 472.514 618.603 473.524 619.513 473.874C621.013 474.604 622.643 475.144 624.333 475.634C626.663 476.304 629.053 476.794 631.273 477.444C635.353 478.524 639.483 479.414 643.683 480.034C647.853 480.644 652.053 480.954 656.233 481.224C658.253 481.324 660.253 481.504 662.263 481.574C663.723 481.614 665.193 481.594 666.683 481.474C669.483 481.214 673.173 480.594 676.223 479.164C676.903 478.844 677.573 478.514 678.163 478.084C679.803 476.884 681.123 475.434 681.843 473.644C682.373 472.094 682.753 470.514 682.423 468.844C682.063 466.984 681.283 465.304 680.723 463.684C680.663 462.854 679.943 462.224 679.123 462.284C678.293 462.344 677.663 463.074 677.723 463.894Z" fill="#E0B692"/>
<path fill-rule="evenodd" clip-rule="evenodd" d="M637.373 476.934C636.703 477.864 635.653 477.834 634.583 478.214C633.653 478.554 632.643 478.494 631.613 478.704C629.813 479.074 627.993 479.484 626.533 479.644C622.323 480.254 618.403 479.724 614.563 478.814C610.783 477.924 607.103 476.664 603.353 475.334C600.753 474.414 598.173 473.594 595.523 472.744C594.643 472.344 593.603 472.724 593.193 473.594C592.793 474.474 593.173 475.514 594.043 475.924C596.393 477.404 598.613 478.964 600.973 480.384C604.693 482.614 608.513 484.574 612.543 485.924C617.233 487.494 622.213 488.044 627.533 487.474C629.133 487.254 631.163 487.074 633.053 486.374C634.383 485.874 635.643 485.254 636.703 484.384C637.533 483.704 638.323 483.114 638.843 482.234C639.713 480.774 640.403 479.534 640.263 477.784C640.503 476.984 640.043 476.154 639.243 475.914C638.443 475.684 637.613 476.144 637.373 476.934Z" fill="#E0B692"/>
<path fill-rule="evenodd" clip-rule="evenodd" d="M603.521 477.046C602.781 477.696 602.101 477.916 601.371 478.436C600.431 479.096 599.471 479.336 598.531 479.836C597.891 480.186 597.271 480.516 596.601 480.806C594.961 481.526 593.161 481.956 591.231 482.136C589.091 482.326 586.841 482.246 584.571 482.046C583.021 481.906 581.471 481.746 579.931 481.526C577.881 481.226 575.901 480.886 574.011 480.516C571.791 480.086 569.781 479.716 568.001 479.266C567.111 478.896 566.081 479.326 565.711 480.216C565.341 481.116 565.771 482.136 566.661 482.506C568.311 483.496 570.181 484.576 572.331 485.606C574.221 486.506 576.261 487.296 578.401 488.006C580.081 488.556 581.801 489.016 583.551 489.346C586.331 489.876 589.141 490.046 591.811 489.906C594.721 489.736 597.511 489.156 599.931 487.966C601.081 487.396 602.231 486.786 603.121 485.856C604.121 484.816 604.991 483.746 605.481 482.306C605.941 480.966 606.211 479.866 606.261 478.296C606.601 477.546 606.271 476.646 605.511 476.306C604.761 475.956 603.861 476.296 603.521 477.046Z" fill="#E0B692"/>
<path fill-rule="evenodd" clip-rule="evenodd" d="M645.963 343.67C640.003 336.402 639.183 328.305 641.473 320.753C643.763 313.191 649.283 306.273 656.053 301.204C658.143 299.6 660.523 298.245 663.023 296.954C669.253 293.72 676.233 291.141 682.193 288.394C689.583 284.889 697.153 281.868 704.783 279.026C723.063 272.217 741.733 266.525 759.713 258.795C785.313 247.721 807.403 236.702 828.573 224.09C849.723 211.485 869.933 197.289 891.783 179.88C905.683 168.778 922.123 153.425 934.933 142.54C938.953 139.132 942.593 136.172 945.663 133.967C949.373 131.308 953.623 128.169 957.993 126.348C960.313 125.385 962.633 124.743 964.893 125.215C967.473 125.756 967.233 128.525 967.033 131.073C966.683 135.541 964.913 140.361 963.353 142.755C958.543 150.229 951.683 158.167 944.253 166.082C933.223 177.823 920.913 189.451 911.133 198.773C902.063 207.486 892.863 215.574 883.313 223.243C873.733 230.943 863.833 238.216 853.363 245.22C852.353 245.856 852.053 247.194 852.683 248.205C853.323 249.217 854.663 249.521 855.673 248.885C866.653 242.407 877.103 235.641 887.223 228.39C897.353 221.132 907.133 213.393 916.833 205.031C927.163 196.047 940.293 184.98 951.853 173.466C960.073 165.281 967.453 156.834 972.773 148.962C975.553 144.799 978.933 135.618 978.523 128.173C978.133 121.125 974.803 115.532 967.303 113.906C962.843 112.94 958.163 113.715 953.563 115.592C948.373 117.712 943.253 121.29 938.853 124.408C935.543 126.753 931.623 129.89 927.313 133.523C914.533 144.292 898.183 159.529 884.333 170.527C862.933 187.551 843.123 201.425 822.413 213.761C801.673 226.116 780.033 236.928 754.953 247.791C737.183 255.536 718.693 261.186 700.653 268.088C692.733 271.117 684.913 274.396 677.253 278.141C672.123 280.701 666.193 283.1 660.703 286.009C656.663 288.154 652.843 290.556 649.633 293.334C641.863 300.234 635.843 309.308 633.863 318.811C631.823 328.582 633.693 338.746 642.063 347.192C643.033 348.269 644.703 348.355 645.773 347.383C646.853 346.411 646.933 344.747 645.963 343.67Z" fill="#E0B692"/>
<path fill-rule="evenodd" clip-rule="evenodd" d="M645.963 343.67C640.003 336.402 639.183 328.305 641.473 320.753C643.763 313.191 649.283 306.273 656.053 301.204C658.143 299.6 660.523 298.245 663.023 296.954C669.253 293.72 676.233 291.141 682.193 288.394C689.583 284.889 697.153 281.868 704.783 279.026C723.063 272.217 741.733 266.525 759.713 258.795C785.313 247.721 807.403 236.702 828.573 224.09C849.723 211.485 869.933 197.289 891.783 179.88C905.683 168.778 922.123 153.425 934.933 142.54C938.953 139.132 942.593 136.172 945.663 133.967C949.373 131.308 953.623 128.169 957.993 126.348C960.313 125.385 962.633 124.743 964.893 125.215C967.473 125.756 967.233 128.525 967.033 131.073C966.683 135.541 964.913 140.361 963.353 142.755C958.543 150.229 951.683 158.167 944.253 166.082C933.223 177.823 920.913 189.451 911.133 198.773C902.063 207.486 892.863 215.574 883.313 223.243C873.733 230.943 863.833 238.216 853.363 245.22C852.353 245.856 852.053 247.194 852.683 248.205C853.323 249.217 854.663 249.521 855.673 248.885C866.653 242.407 877.103 235.641 887.223 228.39C897.353 221.132 907.133 213.393 916.833 205.031C927.163 196.047 940.293 184.98 951.853 173.466C960.073 165.281 967.453 156.834 972.773 148.962C975.553 144.799 978.933 135.618 978.523 128.173C978.133 121.125 974.803 115.532 967.303 113.906C962.843 112.94 958.163 113.715 953.563 115.592C948.373 117.712 943.253 121.29 938.853 124.408C935.543 126.753 931.623 129.89 927.313 133.523C914.533 144.292 898.183 159.529 884.333 170.527C862.933 187.551 843.123 201.425 822.413 213.761C801.673 226.116 780.033 236.928 754.953 247.791C737.183 255.536 718.693 261.186 700.653 268.088C692.733 271.117 684.913 274.396 677.253 278.141C672.123 280.701 666.193 283.1 660.703 286.009C656.663 288.154 652.843 290.556 649.633 293.334C641.863 300.234 635.843 309.308 633.863 318.811C631.823 328.582 633.693 338.746 642.063 347.192C643.033 348.269 644.703 348.355 645.773 347.383C646.853 346.411 646.933 344.747 645.963 343.67Z" fill="#E0B692"/>
<path fill-rule="evenodd" clip-rule="evenodd" d="M549.683 463.784C550.533 461.864 552.573 460.834 554.633 460.014C555.183 459.794 555.773 459.904 556.333 459.744C557.793 459.334 559.363 459.074 560.533 460.284C561.813 461.614 562.573 462.844 562.883 464.224C563.253 465.874 563.073 467.644 562.763 469.724C561.833 475.904 557.503 480.824 552.093 483.704C546.623 486.604 539.973 487.454 534.263 485.044C531.173 483.744 528.704 481.714 526.782 479.234C524.734 476.594 523.3 473.444 522.374 470.094C520.52 463.394 521.937 457.114 524.964 451.414C529.981 441.954 539.243 434.004 547.243 428.094C567.443 413.084 588.533 399.014 608.323 383.374C621.663 372.834 634.383 361.534 646.033 349.03C647.673 347.311 647.613 344.585 645.893 342.944C644.173 341.304 641.443 341.368 639.803 343.087C628.173 354.994 615.423 365.554 602.293 375.644C582.363 390.964 561.433 405.094 541.243 419.974C532.133 426.714 521.758 435.914 516.051 446.684C511.83 454.644 510.072 463.444 512.664 472.784C513.95 477.414 515.989 481.744 518.825 485.404C521.788 489.224 525.612 492.324 530.373 494.324C538.833 497.874 548.703 496.864 556.803 492.564C564.983 488.214 571.273 480.544 572.663 471.214C573.183 467.744 573.263 464.784 572.643 462.024C571.973 459.024 570.523 456.214 567.713 453.324C563.263 448.814 556.973 447.914 552.053 450.814C547.773 453.344 544.693 457.984 544.733 462.744C544.453 464.114 545.323 465.454 546.693 465.734C548.053 466.024 549.393 465.144 549.683 463.784Z" fill="#E0B692"/>
<path fill-rule="evenodd" clip-rule="evenodd" d="M581.273 436.334C588.433 434.954 594.763 432.604 600.803 429.534C606.773 426.494 612.403 422.744 618.303 418.774C622.793 415.674 627.173 412.564 631.333 409.254C635.603 405.874 639.643 402.314 643.553 398.604C651.333 391.234 658.443 383.194 664.903 374.094C670.403 366.314 675.093 358.934 678.063 350.824C679.893 345.836 681.073 340.576 681.423 334.793C683.773 333.601 686.163 332.499 688.583 331.446C695.713 328.337 703.053 325.647 710.143 322.44C722.703 316.709 735.353 311.174 747.883 305.365C756.263 301.478 764.583 297.461 772.793 293.235C785.543 286.624 798.633 280.182 811.553 272.877C819.943 268.13 828.243 263.017 836.363 257.301C837.033 256.845 837.203 255.931 836.753 255.26C836.293 254.59 835.373 254.415 834.703 254.871C826.503 260.256 818.113 265.014 809.683 269.457C796.603 276.351 783.403 282.456 770.523 288.7C762.283 292.724 753.933 296.509 745.553 300.221C732.933 305.807 720.223 311.204 707.593 316.755C700.503 319.9 693.173 322.519 686.043 325.575C682.903 326.921 679.803 328.352 676.773 329.938C675.743 330.481 675.093 331.535 675.053 332.697C674.833 340.004 673.093 346.348 670.373 352.35C667.603 358.464 663.813 364.234 659.523 370.274C653.313 379.014 646.453 386.714 639.003 393.814C635.223 397.414 631.273 400.824 627.223 404.204C623.233 407.534 619.163 410.844 614.903 414.064C608.333 419.174 602.073 423.844 595.213 427.654C590.713 430.154 585.983 432.314 580.673 433.884C579.993 434.054 579.583 434.734 579.743 435.414C579.913 436.084 580.593 436.504 581.273 436.334Z" fill="#E0B692"/>
<path fill-rule="evenodd" clip-rule="evenodd" d="M54.3904 188.683C49.8804 186.954 43.4404 186.377 39.0104 188.448C35.3804 190.149 33.0905 193.547 33.2905 199.07C33.3405 200.055 33.5304 201.015 33.7604 201.97C34.0604 203.223 34.5104 204.438 34.9504 205.644C35.9204 208.125 37.2004 210.524 38.7404 212.814C40.1804 214.943 41.8704 216.959 43.6504 218.92C48.7304 224.503 54.8304 229.502 59.7804 234.268C68.2904 242.397 77.4405 250.422 87.0405 257.852C96.6605 265.298 106.73 272.148 116.91 278.112C122.64 281.4 128.45 284.528 134.34 287.515C147.98 294.429 161.91 300.723 175.47 307.777C176.31 308.247 177.38 307.943 177.85 307.098C178.32 306.252 178.02 305.184 177.17 304.714C164.02 296.911 150.51 289.736 137.21 282.179C131.56 278.968 125.93 275.716 120.42 272.262C110.62 266.232 101 259.276 91.7304 251.88C82.4404 244.472 73.5104 236.615 65.2404 228.596C60.4004 223.935 54.4604 219.03 49.4704 213.599C47.9004 211.897 46.4404 210.131 45.1204 208.325C43.8004 206.525 42.5704 204.706 41.6604 202.758C41.2804 201.993 40.8904 201.227 40.5804 200.43C40.3204 199.772 40.0704 199.114 39.9604 198.413C39.4304 195.192 40.9504 193.342 43.2704 192.417C46.4204 191.163 50.4504 190.999 53.5704 191.58C54.3704 191.806 55.2005 191.341 55.4305 190.541C55.6605 189.742 55.1904 188.909 54.3904 188.683Z" fill="#E0B692"/>
<path fill-rule="evenodd" clip-rule="evenodd" d="M133.871 282.628C129.951 280.836 125.291 278.965 120.391 277.739C115.291 276.465 110.061 276.044 105.471 276.465C99.5907 277.319 96.2306 280.355 95.0806 283.96C94.0206 287.293 94.8107 291.615 98.4007 296.044C99.2207 297.051 100.111 298.002 101.031 298.911C101.921 299.781 102.841 300.614 103.781 301.424C105.221 302.656 106.701 303.858 108.201 305.034C110.401 306.762 112.661 308.436 114.891 310.1C117.561 312.092 120.371 313.944 123.241 315.705C127.411 318.269 131.711 320.65 135.901 323.088C140.511 325.726 145.001 328.554 149.601 331.206C152.741 333.017 155.921 334.741 159.201 336.311C164.721 338.929 170.341 341.341 176.041 343.549C184.531 346.833 193.161 349.712 201.741 352.698C202.641 353.05 203.661 352.605 204.011 351.704C204.361 350.803 203.921 349.785 203.021 349.433C194.731 345.831 186.431 342.238 178.211 338.44C172.781 335.932 167.391 333.354 162.131 330.516C159.841 329.293 157.611 327.974 155.401 326.625C150.111 323.396 144.971 319.936 139.691 316.694C135.591 314.218 131.381 311.787 127.291 309.199C124.641 307.52 122.041 305.776 119.561 303.891C117.391 302.242 115.211 300.576 113.061 298.87C111.661 297.754 110.271 296.621 108.921 295.455C108.111 294.76 107.321 294.046 106.571 293.299C105.851 292.589 105.171 291.849 104.531 291.063C103.061 289.254 102.201 287.679 102.611 286.312C103.011 285.009 104.541 284.431 106.661 284.082C109.741 283.415 113.211 283.293 116.781 283.465C118.921 283.569 121.061 283.75 123.181 283.993C126.661 284.39 129.971 284.857 132.911 285.483C133.701 285.746 134.551 285.321 134.821 284.533C135.081 283.745 134.661 282.892 133.871 282.628Z" fill="#E0B692"/>
<path fill-rule="evenodd" clip-rule="evenodd" d="M178.271 340.699C175.681 339.36 172.881 338.14 169.821 337.165C167.881 336.548 165.881 336.097 163.851 335.722C160.741 335.15 157.601 334.834 154.551 334.877C152.361 334.908 150.231 335.205 148.201 335.579C141.421 336.883 138.561 340.721 138.261 344.819C138.001 348.236 139.761 352.433 143.871 356.151C146.991 358.954 150.521 361.394 154.251 363.584C159.531 366.694 165.201 369.324 170.431 372.014C179.891 376.664 189.501 381.154 199.511 384.504C206.211 386.744 213.061 388.454 220.081 389.584C221.031 389.774 221.961 389.174 222.161 388.224C222.351 387.274 221.751 386.344 220.801 386.154C212.471 384.014 204.531 380.874 196.741 377.334C188.921 373.774 181.291 369.794 173.821 365.584C168.771 362.844 163.311 360.134 158.201 357.003C154.961 355.013 151.861 352.852 149.151 350.351C147.271 348.639 146.001 346.976 146.121 345.412C146.161 344.998 146.441 344.677 146.831 344.395C147.531 343.9 148.491 343.559 149.691 343.325C151.781 342.892 154.011 342.705 156.301 342.556C158.561 342.408 160.861 342.281 163.181 342.322C165.071 342.355 166.931 342.444 168.781 342.575C171.771 342.788 174.611 343.015 177.271 343.541C178.061 343.815 178.921 343.401 179.191 342.617C179.471 341.832 179.051 340.973 178.271 340.699Z" fill="#E0B692"/>
<path fill-rule="evenodd" clip-rule="evenodd" d="M194.481 378.744L189.161 378.944C186.681 379.194 183.581 380.084 180.751 381.514C178.751 382.514 177.001 383.894 175.681 385.454C172.811 388.814 172.101 393.104 174.861 397.854C175.281 398.514 175.751 399.154 176.251 399.754C176.931 400.554 177.681 401.304 178.431 402.014C179.471 402.984 180.591 403.854 181.761 404.634C182.871 405.374 184.041 406.034 185.231 406.654C186.761 407.444 188.331 408.144 189.931 408.794C192.191 409.714 194.501 410.534 196.781 411.394C206.301 414.904 216.191 417.694 226.291 419.754C233.741 421.274 241.281 422.424 248.831 423.364C256.411 424.294 263.961 424.944 271.421 425.614C272.381 425.744 273.271 425.074 273.401 424.124C273.531 423.164 272.861 422.274 271.901 422.144C264.581 420.774 257.191 419.304 249.741 417.774C242.421 416.284 235.101 414.674 227.851 412.864C218.201 410.454 208.671 407.724 199.561 404.124C197.351 403.264 195.121 402.444 192.921 401.524C191.551 400.954 190.191 400.344 188.861 399.654C187.931 399.174 187.021 398.644 186.141 398.064C185.331 397.514 184.551 396.924 183.841 396.244C183.381 395.824 182.921 395.384 182.501 394.914C182.151 394.524 181.821 394.114 181.541 393.674C180.231 391.764 181.081 390.054 182.441 388.624C183.891 387.074 185.731 385.694 187.571 384.704C188.501 384.194 189.341 383.694 190.161 383.374L195.121 381.684C195.931 381.504 196.451 380.704 196.271 379.894C196.091 379.084 195.291 378.564 194.481 378.744Z" fill="#E0B692"/>
<path fill-rule="evenodd" clip-rule="evenodd" d="M225.811 415.244C223.141 415.794 220.591 417.234 218.471 419.204C216.961 420.604 215.911 422.364 215.141 424.194C214.261 426.284 214.081 428.564 214.481 430.834C214.741 432.284 215.391 433.684 216.291 435.084C217.741 437.164 219.631 438.814 221.771 440.104C224.611 441.814 227.901 442.894 231.001 443.674C240.781 446.064 250.801 447.054 260.901 447.074C269.751 447.084 278.631 446.444 287.441 445.744C293.321 445.274 299.131 444.684 304.911 444.364C305.881 444.364 306.671 443.584 306.671 442.614C306.671 441.644 305.891 440.864 304.921 440.864C296.461 440.404 287.861 440.294 279.201 440.184C274.961 440.134 270.721 440.074 266.481 439.964C262.281 439.844 258.081 439.674 253.911 439.354C246.831 438.804 239.811 437.854 232.951 436.044C230.931 435.524 228.811 434.864 226.871 433.894C225.241 433.074 223.731 432.054 222.671 430.574C221.161 428.774 221.091 426.664 221.811 424.684C222.801 421.994 224.531 419.434 226.901 418.044C227.681 417.744 228.061 416.874 227.761 416.104C227.461 415.324 226.581 414.944 225.811 415.244Z" fill="#E0B692"/>
<path fill-rule="evenodd" clip-rule="evenodd" d="M264.291 442.954C263.461 444.144 262.601 445.344 261.871 446.684C261.291 447.754 261.011 448.874 260.761 450.024C260.251 453.344 261.271 456.014 262.911 458.314C263.601 459.274 264.491 460.084 265.471 460.824C269.341 463.774 275.171 465.044 279.221 466.154C283.961 467.384 288.831 468.004 293.731 468.154C297.991 468.274 302.281 468.104 306.531 467.744C309.321 467.504 312.091 467.174 314.841 466.864C317.771 466.514 320.731 466.204 323.811 465.804C328.001 465.264 332.371 464.614 337.251 463.934C338.221 463.864 338.951 463.034 338.881 462.064C338.821 461.104 337.981 460.374 337.021 460.434C332.091 460.414 327.671 460.354 323.451 460.384C320.341 460.404 317.371 460.484 314.411 460.534C311.681 460.594 308.931 460.644 306.161 460.694C302.131 460.774 298.091 460.804 294.071 460.554C289.751 460.294 285.451 459.734 281.271 458.564C278.451 457.794 274.611 456.944 271.471 455.324C270.831 454.994 270.231 454.624 269.671 454.234C269.161 453.884 268.641 453.574 268.241 453.144C267.491 452.334 266.731 451.474 266.591 450.164C266.441 449.274 266.371 448.394 266.491 447.474C266.651 446.304 266.851 445.214 267.061 444.124C267.381 443.364 267.021 442.474 266.261 442.154C265.491 441.834 264.611 442.194 264.291 442.954Z" fill="#E0B692"/>
<path fill-rule="evenodd" clip-rule="evenodd" d="M298.411 463.684C297.851 465.304 297.071 466.984 296.711 468.844C296.381 470.514 296.761 472.094 297.291 473.644C298.011 475.434 299.331 476.884 300.971 478.084C301.561 478.514 302.231 478.844 302.911 479.164C305.961 480.594 309.651 481.214 312.451 481.474C313.941 481.594 315.411 481.614 316.871 481.574C318.881 481.504 320.881 481.324 322.901 481.224C327.081 480.954 331.281 480.644 335.451 480.034C339.651 479.414 343.781 478.524 347.861 477.444C350.081 476.794 352.471 476.304 354.801 475.634C356.491 475.144 358.121 474.604 359.621 473.874C360.531 473.524 360.981 472.514 360.641 471.614C360.301 470.704 359.281 470.244 358.381 470.594C357.331 470.884 356.231 471.054 355.101 471.204C352.311 471.574 349.431 471.644 346.751 471.954C343.561 472.414 340.361 472.654 337.131 472.904C332.291 473.274 327.441 473.514 322.611 473.554C320.621 473.614 318.661 473.724 316.701 473.754C315.521 473.764 314.351 473.744 313.161 473.634C311.411 473.474 309.211 473.114 307.201 472.414C306.371 472.134 305.591 471.784 304.881 471.374C304.301 471.034 303.641 470.864 303.261 470.344C302.871 469.854 302.501 469.354 302.351 468.704C301.941 467.044 301.691 465.414 301.411 463.894C301.471 463.074 300.841 462.344 300.011 462.284C299.191 462.224 298.471 462.854 298.411 463.684Z" fill="#E0B692"/>
<path fill-rule="evenodd" clip-rule="evenodd" d="M338.871 477.784C338.731 479.534 339.421 480.774 340.291 482.234C340.811 483.114 341.601 483.704 342.431 484.384C343.491 485.254 344.75 485.874 346.08 486.374C347.97 487.074 350.001 487.254 351.601 487.474C356.921 488.044 361.901 487.494 366.591 485.924C370.621 484.574 374.441 482.614 378.161 480.384C380.521 478.964 382.741 477.404 385.091 475.924C385.961 475.514 386.34 474.474 385.94 473.594C385.53 472.724 384.491 472.344 383.611 472.744C380.961 473.594 378.381 474.414 375.781 475.334C372.031 476.664 368.35 477.924 364.57 478.814C360.73 479.724 356.811 480.254 352.601 479.644C351.141 479.484 349.321 479.074 347.521 478.704C346.491 478.494 345.481 478.554 344.551 478.214C343.481 477.834 342.431 477.864 341.761 476.934C341.521 476.144 340.691 475.684 339.891 475.914C339.091 476.154 338.631 476.984 338.871 477.784Z" fill="#E0B692"/>
<path fill-rule="evenodd" clip-rule="evenodd" d="M372.873 478.296C372.923 479.866 373.193 480.966 373.653 482.306C374.143 483.746 375.013 484.816 376.013 485.856C376.903 486.786 378.053 487.396 379.203 487.966C381.623 489.156 384.413 489.736 387.323 489.906C389.993 490.046 392.803 489.876 395.583 489.346C397.333 489.016 399.053 488.556 400.733 488.006C402.873 487.296 404.913 486.506 406.803 485.606C408.953 484.576 410.823 483.496 412.473 482.506C413.363 482.136 413.793 481.116 413.423 480.216C413.053 479.326 412.023 478.896 411.133 479.266C409.353 479.716 407.343 480.086 405.123 480.516C403.233 480.886 401.253 481.226 399.203 481.526C397.663 481.746 396.113 481.906 394.563 482.046C392.293 482.246 390.043 482.326 387.903 482.136C385.973 481.956 384.173 481.526 382.533 480.806C381.863 480.516 381.243 480.186 380.603 479.836C379.663 479.336 378.703 479.096 377.763 478.436C377.033 477.916 376.353 477.696 375.613 477.046C375.273 476.296 374.373 475.956 373.623 476.306C372.863 476.646 372.533 477.546 372.873 478.296Z" fill="#E0B692"/>
<path fill-rule="evenodd" clip-rule="evenodd" d="M337.071 347.192C345.441 338.746 347.311 328.582 345.271 318.811C343.291 309.308 337.271 300.234 329.501 293.334C326.291 290.556 322.471 288.154 318.431 286.009C312.941 283.1 307.011 280.701 301.881 278.141C294.221 274.396 286.401 271.117 278.481 268.088C260.441 261.186 241.951 255.536 224.181 247.791C199.101 236.928 177.461 226.116 156.721 213.761C136.011 201.425 116.201 187.551 94.801 170.527C80.951 159.529 64.6009 144.292 51.8209 133.523C47.5109 129.89 43.591 126.753 40.281 124.408C35.881 121.29 30.7609 117.712 25.5709 115.592C20.9709 113.715 16.2909 112.94 11.8309 113.906C4.3309 115.532 1.00095 121.125 0.610931 128.173C0.200928 135.618 3.58093 144.799 6.36093 148.962C11.6809 156.834 19.061 165.281 27.281 173.466C38.841 184.98 51.971 196.047 62.301 205.031C72.001 213.393 81.781 221.132 91.911 228.39C102.031 235.641 112.481 242.407 123.461 248.885C124.471 249.521 125.811 249.217 126.451 248.205C127.081 247.194 126.781 245.856 125.771 245.22C115.301 238.216 105.401 230.943 95.8209 223.243C86.2709 215.574 77.071 207.486 68.0009 198.773C58.2209 189.451 45.9109 177.823 34.881 166.082C27.451 158.167 20.591 150.229 15.781 142.755C14.221 140.361 12.4509 135.541 12.1009 131.073C11.9009 128.525 11.6609 125.756 14.2409 125.215C16.5009 124.743 18.821 125.385 21.141 126.348C25.511 128.169 29.7609 131.308 33.4709 133.967C36.5409 136.172 40.1809 139.132 44.2009 142.54C57.0109 153.425 73.4509 168.778 87.3509 179.88C109.201 197.289 129.411 211.485 150.561 224.09C171.731 236.702 193.821 247.721 219.421 258.795C237.401 266.525 256.071 272.217 274.351 279.026C281.981 281.868 289.551 284.889 296.941 288.394C302.901 291.141 309.881 293.72 316.111 296.954C318.611 298.245 320.991 299.6 323.081 301.204C329.851 306.273 335.371 313.191 337.661 320.753C339.951 328.305 339.131 336.402 333.171 343.67C332.201 344.747 332.281 346.411 333.361 347.383C334.431 348.355 336.101 348.269 337.071 347.192Z" fill="#E0B692"/>
<path fill-rule="evenodd" clip-rule="evenodd" d="M337.071 347.192C345.441 338.746 347.311 328.582 345.271 318.811C343.291 309.308 337.271 300.234 329.501 293.334C326.291 290.556 322.471 288.154 318.431 286.009C312.941 283.1 307.011 280.701 301.881 278.141C294.221 274.396 286.401 271.117 278.481 268.088C260.441 261.186 241.951 255.536 224.181 247.791C199.101 236.928 177.461 226.116 156.721 213.761C136.011 201.425 116.201 187.551 94.801 170.527C80.951 159.529 64.6009 144.292 51.8209 133.523C47.5109 129.89 43.591 126.753 40.281 124.408C35.881 121.29 30.7609 117.712 25.5709 115.592C20.9709 113.715 16.2909 112.94 11.8309 113.906C4.3309 115.532 1.00095 121.125 0.610931 128.173C0.200928 135.618 3.58093 144.799 6.36093 148.962C11.6809 156.834 19.061 165.281 27.281 173.466C38.841 184.98 51.971 196.047 62.301 205.031C72.001 213.393 81.781 221.132 91.911 228.39C102.031 235.641 112.481 242.407 123.461 248.885C124.471 249.521 125.811 249.217 126.451 248.205C127.081 247.194 126.781 245.856 125.771 245.22C115.301 238.216 105.401 230.943 95.8209 223.243C86.2709 215.574 77.071 207.486 68.0009 198.773C58.2209 189.451 45.9109 177.823 34.881 166.082C27.451 158.167 20.591 150.229 15.781 142.755C14.221 140.361 12.4509 135.541 12.1009 131.073C11.9009 128.525 11.6609 125.756 14.2409 125.215C16.5009 124.743 18.821 125.385 21.141 126.348C25.511 128.169 29.7609 131.308 33.4709 133.967C36.5409 136.172 40.1809 139.132 44.2009 142.54C57.0109 153.425 73.4509 168.778 87.3509 179.88C109.201 197.289 129.411 211.485 150.561 224.09C171.731 236.702 193.821 247.721 219.421 258.795C237.401 266.525 256.071 272.217 274.351 279.026C281.981 281.868 289.551 284.889 296.941 288.394C302.901 291.141 309.881 293.72 316.111 296.954C318.611 298.245 320.991 299.6 323.081 301.204C329.851 306.273 335.371 313.191 337.661 320.753C339.951 328.305 339.131 336.402 333.171 343.67C332.201 344.747 332.281 346.411 333.361 347.383C334.431 348.355 336.101 348.269 337.071 347.192Z" fill="#E0B692"/>
<path fill-rule="evenodd" clip-rule="evenodd" d="M434.401 462.744C434.441 457.984 431.361 453.344 427.081 450.814C422.161 447.914 415.871 448.814 411.421 453.324C408.611 456.214 407.161 459.024 406.491 462.024C405.871 464.784 405.951 467.744 406.471 471.214C407.861 480.544 414.151 488.214 422.331 492.564C430.431 496.864 440.301 497.874 448.761 494.324C453.522 492.324 457.346 489.224 460.309 485.404C463.145 481.744 465.184 477.414 466.47 472.784C469.062 463.444 467.304 454.644 463.083 446.684C457.376 435.914 447.001 426.714 437.891 419.974C417.701 405.094 396.771 390.964 376.841 375.644C363.711 365.554 350.961 354.994 339.331 343.087C337.691 341.368 334.961 341.304 333.241 342.944C331.521 344.585 331.461 347.311 333.101 349.03C344.751 361.534 357.471 372.834 370.811 383.374C390.601 399.014 411.691 413.084 431.891 428.094C439.891 434.004 449.153 441.954 454.17 451.414C457.197 457.114 458.614 463.394 456.76 470.094C455.834 473.444 454.4 476.594 452.352 479.234C450.43 481.714 447.961 483.744 444.871 485.044C439.161 487.454 432.511 486.604 427.041 483.704C421.631 480.824 417.301 475.904 416.371 469.724C416.061 467.644 415.881 465.874 416.251 464.224C416.561 462.844 417.321 461.614 418.601 460.284C419.771 459.074 421.341 459.334 422.801 459.744C423.361 459.904 423.951 459.794 424.501 460.014C426.561 460.834 428.601 461.864 429.451 463.784C429.741 465.144 431.081 466.024 432.441 465.734C433.811 465.454 434.681 464.114 434.401 462.744Z" fill="#E0B692"/>
<path fill-rule="evenodd" clip-rule="evenodd" d="M398.461 433.884C393.151 432.314 388.421 430.154 383.921 427.654C377.061 423.844 370.801 419.174 364.231 414.064C359.971 410.844 355.901 407.534 351.911 404.204C347.861 400.824 343.911 397.414 340.131 393.814C332.681 386.714 325.821 379.014 319.611 370.274C315.321 364.234 311.531 358.464 308.761 352.35C306.041 346.348 304.301 340.004 304.081 332.697C304.041 331.535 303.391 330.481 302.361 329.938C299.331 328.352 296.231 326.921 293.091 325.575C285.961 322.519 278.631 319.9 271.541 316.755C258.911 311.204 246.201 305.807 233.581 300.221C225.201 296.509 216.851 292.724 208.611 288.7C195.731 282.456 182.531 276.351 169.451 269.457C161.021 265.014 152.631 260.256 144.431 254.871C143.761 254.415 142.841 254.59 142.381 255.26C141.931 255.931 142.101 256.845 142.771 257.301C150.891 263.017 159.191 268.13 167.581 272.877C180.501 280.182 193.591 286.624 206.341 293.235C214.551 297.461 222.871 301.478 231.251 305.365C243.781 311.174 256.431 316.709 268.991 322.44C276.081 325.647 283.421 328.337 290.551 331.446C292.971 332.499 295.361 333.601 297.711 334.793C298.061 340.576 299.241 345.835 301.071 350.824C304.041 358.934 308.731 366.314 314.231 374.094C320.691 383.194 327.801 391.234 335.581 398.604C339.491 402.314 343.531 405.874 347.801 409.254C351.961 412.564 356.341 415.674 360.831 418.774C366.731 422.744 372.361 426.494 378.331 429.534C384.371 432.604 390.701 434.954 397.861 436.334C398.541 436.504 399.221 436.084 399.391 435.414C399.551 434.734 399.141 434.054 398.461 433.884Z" fill="#E0B692"/>
<path fill-rule="evenodd" clip-rule="evenodd" d="M489.759 386.972C526.29 386.972 559.376 372.146 583.336 348.186C607.296 324.227 622.13 291.134 622.13 254.606C622.13 218.079 607.296 184.989 583.336 161.024C559.376 137.069 526.29 122.243 489.759 122.243C453.232 122.243 420.139 137.069 396.179 161.024C372.219 184.989 357.394 218.079 357.394 254.606C357.394 291.134 372.219 324.227 396.179 348.186C420.139 372.146 453.232 386.972 489.759 386.972ZM489.759 376.606C557.09 376.606 611.756 321.94 611.756 254.606C611.756 187.271 557.09 132.608 489.759 132.608C422.426 132.608 367.759 187.271 367.759 254.606C367.759 321.94 422.426 376.606 489.759 376.606Z" fill="#E0B692"/>
<path d="M489.5 358.999L465.893 294.62L399 306.749L442.567 254.218L399 202.249L465.893 213.816L489.5 149.998L512.545 213.816L580 202.249L535.871 254.218L580 306.749L512.545 294.62L489.5 358.999Z" fill="#E0B692"/>
<path d="M490 158.998C497.731 158.998 503.999 152.73 503.999 144.998C503.999 137.266 497.731 130.998 490 130.998C482.268 130.998 476 137.266 476 144.998C476 152.73 482.268 158.998 490 158.998Z" fill="#E0B692"/>
<path d="M572.68 207.009C576.546 213.705 585.108 215.999 591.804 212.133C598.5 208.267 600.794 199.705 596.928 193.009C593.063 186.314 584.5 184.019 577.804 187.885C571.108 191.751 568.814 200.314 572.68 207.009Z" fill="#E0B692"/>
<path d="M572.442 302.617C568.576 309.313 570.87 317.875 577.567 321.741C584.263 325.607 592.825 323.313 596.691 316.617C600.557 309.921 598.262 301.359 591.566 297.493C584.87 293.627 576.308 295.921 572.442 302.617Z" fill="#E0B692"/>
<path d="M489.524 350.215C481.792 350.215 475.524 356.483 475.524 364.215C475.524 371.947 481.792 378.215 489.524 378.215C497.256 378.215 503.523 371.947 503.523 364.215C503.523 356.483 497.256 350.215 489.524 350.215Z" fill="#E0B692"/>
<path d="M406.844 302.205C402.978 295.51 394.416 293.215 387.719 297.081C381.023 300.947 378.729 309.51 382.595 316.205C386.461 322.901 395.023 325.195 401.719 321.329C408.415 317.463 410.71 308.901 406.844 302.205Z" fill="#E0B692"/>
<path d="M407.082 206.597C410.948 199.902 408.654 191.339 401.958 187.473C395.262 183.607 386.7 185.902 382.834 192.597C378.968 199.293 381.262 207.855 387.958 211.721C394.654 215.587 403.217 213.293 407.082 206.597Z" fill="#E0B692"/>
<path fill-rule="evenodd" clip-rule="evenodd" d="M506.623 125.255L490.403 0.418701L488.419 0.424683L472.894 125.287C472.826 125.835 473.216 126.335 473.763 126.403C474.311 126.471 474.811 126.082 474.879 125.534L489.433 8.47668L504.639 125.512C504.71 126.06 505.213 126.446 505.76 126.375C506.307 126.304 506.694 125.802 506.623 125.255Z" fill="#E0B692"/>
<path fill-rule="evenodd" clip-rule="evenodd" d="M505.632 125.383L489.412 0.547852L473.888 125.411" fill="#E0B692"/>
<path fill-rule="evenodd" clip-rule="evenodd" d="M360.406 237.742L235.57 253.962L235.576 255.946L360.438 271.471C360.986 271.539 361.486 271.149 361.554 270.602C361.622 270.054 361.233 269.554 360.685 269.486L243.628 254.932L360.663 239.726C361.211 239.655 361.597 239.152 361.526 238.605C361.455 238.058 360.953 237.671 360.406 237.742Z" fill="#E0B692"/>
<path fill-rule="evenodd" clip-rule="evenodd" d="M360.534 238.734L235.699 254.954L360.562 270.478" fill="#E0B692"/>
<path fill-rule="evenodd" clip-rule="evenodd" d="M618.727 271.466L743.562 255.246L743.557 253.262L618.695 237.737C618.147 237.669 617.646 238.059 617.578 238.606C617.51 239.154 617.9 239.654 618.448 239.722L735.505 254.276L618.469 269.482C617.921 269.553 617.536 270.056 617.607 270.603C617.678 271.15 618.18 271.537 618.727 271.466Z" fill="#E0B692"/>
<path fill-rule="evenodd" clip-rule="evenodd" d="M618.599 270.474L743.434 254.254L618.571 238.73" fill="#E0B692"/>
<path fill-rule="evenodd" clip-rule="evenodd" d="M504.639 383.674L489.433 500.709L474.879 383.652C474.811 383.104 474.311 382.715 473.763 382.783C473.216 382.851 472.826 383.351 472.894 383.899L488.419 508.761L490.403 508.767L506.623 383.931C506.694 383.384 506.307 382.882 505.76 382.811C505.213 382.74 504.71 383.126 504.639 383.674Z" fill="#E0B692"/>
<path fill-rule="evenodd" clip-rule="evenodd" d="M505.632 383.803L489.412 508.638L473.888 383.775" fill="#E0B692"/>
<path fill-rule="evenodd" clip-rule="evenodd" d="M383.349 179.089L354.319 124.935L404.756 156.305C405.224 156.597 405.841 156.453 406.133 155.984C406.424 155.516 406.28 154.898 405.812 154.607L352.198 121.259L350.788 122.582L381.586 180.034C381.846 180.52 382.453 180.704 382.94 180.442C383.426 180.181 383.609 179.575 383.349 179.089Z" fill="#E0B692"/>
<path fill-rule="evenodd" clip-rule="evenodd" d="M382.467 179.56L351.67 122.109L405.284 155.456" fill="#E0B692"/>
<path fill-rule="evenodd" clip-rule="evenodd" d="M593.991 331.663L623.021 385.817L572.584 354.446C572.116 354.154 571.498 354.298 571.207 354.767C570.916 355.236 571.059 355.853 571.528 356.144L625.142 389.492L626.552 388.17L595.754 330.718C595.493 330.231 594.887 330.048 594.4 330.309C593.914 330.57 593.731 331.176 593.991 331.663Z" fill="#E0B692"/>
<path fill-rule="evenodd" clip-rule="evenodd" d="M594.873 331.191L625.67 388.643L572.056 355.295" fill="#E0B692"/>
<path fill-rule="evenodd" clip-rule="evenodd" d="M572.528 153.788L626.682 124.758L595.311 175.195C595.019 175.663 595.163 176.281 595.632 176.573C596.101 176.863 596.718 176.72 597.009 176.251L630.357 122.637L629.035 121.227L571.583 152.025C571.096 152.286 570.913 152.892 571.174 153.379C571.435 153.865 572.041 154.048 572.528 153.788Z" fill="#E0B692"/>
<path fill-rule="evenodd" clip-rule="evenodd" d="M572.056 152.906L629.508 122.109L596.161 175.723" fill="#E0B692"/>
<path fill-rule="evenodd" clip-rule="evenodd" d="M408.649 356.965L354.495 385.995L385.866 335.558C386.158 335.09 386.014 334.473 385.544 334.181C385.076 333.89 384.459 334.034 384.168 334.502L350.82 388.116L352.142 389.526L409.594 358.728C410.081 358.468 410.264 357.861 410.003 357.374C409.742 356.888 409.136 356.705 408.649 356.965Z" fill="#E0B692"/>
<path fill-rule="evenodd" clip-rule="evenodd" d="M409.121 357.847L351.669 388.644L385.016 335.03" fill="#E0B692"/>
</svg>
